<?xml version="1.0" encoding="UTF-8" standalone="no"?>
<!DOCTYPE svg PUBLIC "-//W3C//DTD SVG 1.1//EN"
 "http://www.w3.org/Graphics/SVG/1.1/DTD/svg11.dtd">
<!-- Generated by graphviz version 14.1.2 (20260124.0452)
 -->
<!-- Title: Batch Sequencing &#45; RHNV&#45;EDWPROD Pages: 1 -->
<svg width="429pt" height="480pt"
 viewBox="0.00 0.00 429.00 480.00" xmlns="http://www.w3.org/2000/svg" xmlns:xlink="http://www.w3.org/1999/xlink">
<g id="graph0" class="graph" transform="scale(1 1) rotate(0) translate(4 475.5)">
<title>Batch Sequencing &#45; RHNV&#45;EDWPROD</title>
<polygon fill="white" stroke="none" points="-4,4 -4,-475.5 424.5,-475.5 424.5,4 -4,4"/>
<text xml:space="preserve" text-anchor="start" x="71.88" y="-459" font-family="Arial" font-weight="bold" font-size="10.00">Batch Sequencing &#45; RHNV&#45;EDWPROD &#45; Broken References</text>
<text xml:space="preserve" text-anchor="start" x="65.5" y="-449" font-family="Arial" font-size="10.00">Showing only nodes with broken references and their parent nodes</text>
<text xml:space="preserve" text-anchor="start" x="208.75" y="-439" font-family="Arial" font-size="10.00"> </text>
<!-- CMSClaim.CMSClaim &#45; BNEX (Step #1) -->
<g id="node1" class="node">
<title>CMSClaim.CMSClaim &#45; BNEX (Step #1)</title>
<polygon fill="#cee2ff" stroke="none" points="1,-412.75 1,-432.5 114.5,-432.5 114.5,-412.75 1,-412.75"/>
<text xml:space="preserve" text-anchor="start" x="37.88" y="-420.9" font-family="Arial" font-weight="bold" font-size="8.00">CMSClaim</text>
<polygon fill="#ffb255" fill-opacity="0.929412" stroke="none" points="1,-393 1,-412.75 114.5,-412.75 114.5,-393 1,-393"/>
<text xml:space="preserve" text-anchor="start" x="6" y="-400.15" font-family="Arial" font-size="8.00">CMSClaim &#45; BNEX (Step #1)</text>
<text xml:space="preserve" text-anchor="start" x="15" y="-380.4" font-family="Arial" font-size="8.00">Average Duration&#45;0 min</text>
<text xml:space="preserve" text-anchor="start" x="14.62" y="-360.65" font-family="Arial" font-size="8.00">Schedule (None) | IDEA</text>
<text xml:space="preserve" text-anchor="start" x="22.5" y="-340.9" font-family="Arial" font-size="8.00">Last Run: Unknown</text>
<polygon fill="#ff0000" stroke="none" points="1,-314 1,-333.75 114.5,-333.75 114.5,-314 1,-314"/>
<text xml:space="preserve" text-anchor="start" x="27" y="-321.15" font-family="Arial" font-size="8.00">Did not run today</text>
<polygon fill="none" stroke="black" points="0,-313 0,-433.5 115.5,-433.5 115.5,-313 0,-313"/>
</g>
<!-- CMSClaim.CMSClaim &#45; BNEX (Step #2) -->
<g id="node3" class="node">
<title>CMSClaim.CMSClaim &#45; BNEX (Step #2)</title>
<polygon fill="#cee2ff" stroke="none" points="1,-256.25 1,-276 114.5,-276 114.5,-256.25 1,-256.25"/>
<text xml:space="preserve" text-anchor="start" x="37.88" y="-264.4" font-family="Arial" font-weight="bold" font-size="8.00">CMSClaim</text>
<polygon fill="#ffb255" fill-opacity="0.929412" stroke="none" points="1,-236.5 1,-256.25 114.5,-256.25 114.5,-236.5 1,-236.5"/>
<text xml:space="preserve" text-anchor="start" x="6" y="-243.65" font-family="Arial" font-size="8.00">CMSClaim &#45; BNEX (Step #2)</text>
<text xml:space="preserve" text-anchor="start" x="15" y="-223.9" font-family="Arial" font-size="8.00">Average Duration&#45;0 min</text>
<text xml:space="preserve" text-anchor="start" x="14.62" y="-204.15" font-family="Arial" font-size="8.00">Schedule (None) | IDEA</text>
<text xml:space="preserve" text-anchor="start" x="22.5" y="-184.4" font-family="Arial" font-size="8.00">Last Run: Unknown</text>
<polygon fill="#ff0000" stroke="none" points="1,-157.5 1,-177.25 114.5,-177.25 114.5,-157.5 1,-157.5"/>
<text xml:space="preserve" text-anchor="start" x="27" y="-164.65" font-family="Arial" font-size="8.00">Did not run today</text>
<polygon fill="none" stroke="black" points="0,-156.5 0,-277 115.5,-277 115.5,-156.5 0,-156.5"/>
</g>
<!-- CMSClaim.CMSClaim &#45; BNEX (Step #1)&#45;&gt;CMSClaim.CMSClaim &#45; BNEX (Step #2) -->
<g id="edge2" class="edge">
<title>CMSClaim.CMSClaim &#45; BNEX (Step #1)&#45;&gt;CMSClaim.CMSClaim &#45; BNEX (Step #2)</title>
<g id="a_edge2"><a xlink:href="https://rhnv-webprod.rhnv.hosted/IDEA-Web/applications/4/entry/29" target="_blank">
<path fill="none" stroke="black" d="M57.75,-313.4C57.75,-305.19 57.75,-296.69 57.75,-288.29"/>
<polygon fill="black" stroke="black" points="61.25,-288.46 57.75,-278.46 54.25,-288.46 61.25,-288.46"/>
</a>
</g>
</g>
<!-- Ring Deploy Test Sequence 2.Ring Deploy Test Sequence 2 -->
<g id="node2" class="node">
<title>Ring Deploy Test Sequence 2.Ring Deploy Test Sequence 2</title>
<polygon fill="#a487b7" stroke="none" points="135,-256.25 135,-276 260.5,-276 260.5,-256.25 135,-256.25"/>
<text xml:space="preserve" text-anchor="start" x="140" y="-264.4" font-family="Arial" font-weight="bold" font-size="8.00">Ring Deploy Test Sequence 2</text>
<polygon fill="#ffb255" fill-opacity="0.929412" stroke="none" points="135,-236.5 135,-256.25 260.5,-256.25 260.5,-236.5 135,-236.5"/>
<text xml:space="preserve" text-anchor="start" x="145.25" y="-243.65" font-family="Arial" font-size="8.00">Ring Deploy Test Sequence 2</text>
<text xml:space="preserve" text-anchor="start" x="155" y="-223.9" font-family="Arial" font-size="8.00">Average Duration&#45;0 min</text>
<text xml:space="preserve" text-anchor="start" x="154.62" y="-204.15" font-family="Arial" font-size="8.00">Schedule (None) | IDEA</text>
<text xml:space="preserve" text-anchor="start" x="162.5" y="-184.4" font-family="Arial" font-size="8.00">Last Run: Unknown</text>
<polygon fill="#ff0000" stroke="none" points="135,-157.5 135,-177.25 260.5,-177.25 260.5,-157.5 135,-157.5"/>
<text xml:space="preserve" text-anchor="start" x="167" y="-164.65" font-family="Arial" font-size="8.00">Did not run today</text>
<polygon fill="none" stroke="black" points="134,-156.5 134,-277 261.5,-277 261.5,-156.5 134,-156.5"/>
</g>
<!-- COPD.Refresh COPD -->
<g id="node4" class="node">
<title>COPD.Refresh COPD</title>
<polygon fill="#a487b7" stroke="none" points="280.5,-402.88 280.5,-422.62 391,-422.62 391,-402.88 280.5,-402.88"/>
<text xml:space="preserve" text-anchor="start" x="324.12" y="-411.02" font-family="Arial" font-weight="bold" font-size="8.00">COPD</text>
<polygon fill="#ffffff" stroke="none" points="280.5,-383.12 280.5,-402.88 391,-402.88 391,-383.12 280.5,-383.12"/>
<text xml:space="preserve" text-anchor="start" x="308.75" y="-390.27" font-family="Arial" font-size="8.00">Refresh COPD</text>
<text xml:space="preserve" text-anchor="start" x="288.88" y="-370.52" font-family="Arial" font-size="8.00">Average Duration&#45;110 min</text>
<text xml:space="preserve" text-anchor="start" x="285.5" y="-350.77" font-family="Arial" font-size="8.00">Scheduled (Disabled) | Daily</text>
<polygon fill="#2a77bb" stroke="none" points="280.5,-323.88 280.5,-343.62 391,-343.62 391,-323.88 280.5,-323.88"/>
<text xml:space="preserve" text-anchor="start" x="315.12" y="-331.02" font-family="Arial" font-size="8.00">In Progress</text>
<polygon fill="none" stroke="black" points="279.5,-322.88 279.5,-423.62 392,-423.62 392,-322.88 279.5,-322.88"/>
</g>
<!-- RemoteHealth.Refresh RemoteHealth -->
<g id="node5" class="node">
<title>RemoteHealth.Refresh RemoteHealth</title>
<polygon fill="#cfcfcf" fill-opacity="0.929412" stroke="none" points="287.62,-256.25 287.62,-276 383.88,-276 383.88,-256.25 287.62,-256.25"/>
<text xml:space="preserve" text-anchor="start" x="308" y="-264.4" font-family="Arial" font-weight="bold" font-size="8.00">RemoteHealth</text>
<polygon fill="#ffb255" fill-opacity="0.929412" stroke="none" points="287.62,-236.5 287.62,-256.25 383.88,-256.25 383.88,-236.5 287.62,-236.5"/>
<text xml:space="preserve" text-anchor="start" x="294.5" y="-243.65" font-family="Arial" font-size="8.00">Refresh RemoteHealth</text>
<text xml:space="preserve" text-anchor="start" x="293" y="-223.9" font-family="Arial" font-size="8.00">Average Duration&#45;0 min</text>
<text xml:space="preserve" text-anchor="start" x="292.62" y="-204.15" font-family="Arial" font-size="8.00">Schedule (None) | IDEA</text>
<text xml:space="preserve" text-anchor="start" x="300.5" y="-184.4" font-family="Arial" font-size="8.00">Last Run: Unknown</text>
<polygon fill="#ff0000" stroke="none" points="287.62,-157.5 287.62,-177.25 383.88,-177.25 383.88,-157.5 287.62,-157.5"/>
<text xml:space="preserve" text-anchor="start" x="305" y="-164.65" font-family="Arial" font-size="8.00">Did not run today</text>
<polygon fill="none" stroke="black" points="286.62,-156.5 286.62,-277 384.88,-277 384.88,-156.5 286.62,-156.5"/>
</g>
<!-- COPD.Refresh COPD&#45;&gt;RemoteHealth.Refresh RemoteHealth -->
<g id="edge1" class="edge">
<title>COPD.Refresh COPD&#45;&gt;RemoteHealth.Refresh RemoteHealth</title>
<g id="a_edge1"><a xlink:href="https://rhnv-webprod.rhnv.hosted/IDEA-Web/applications/4/entry/49">
<path fill="none" stroke="#5e676f" stroke-dasharray="5,2" d="M335.75,-322.94C335.75,-311.83 335.75,-299.83 335.75,-288.05"/>
<polygon fill="#5e676f" stroke="#5e676f" points="339.25,-288.37 335.75,-278.37 332.25,-288.37 339.25,-288.37"/>
</a>
</g>
</g>
<!-- Vendor Extract.Refresh VendorExtract PRC Remote Health -->
<g id="node7" class="node">
<title>Vendor Extract.Refresh VendorExtract PRC Remote Health</title>
<polygon fill="#a487b7" stroke="none" points="252,-99.75 252,-119.5 419.5,-119.5 419.5,-99.75 252,-99.75"/>
<text xml:space="preserve" text-anchor="start" x="306.5" y="-107.9" font-family="Arial" font-weight="bold" font-size="8.00">Vendor Extract</text>
<polygon fill="#ffb255" fill-opacity="0.929412" stroke="none" points="252,-80 252,-99.75 419.5,-99.75 419.5,-80 252,-80"/>
<text xml:space="preserve" text-anchor="start" x="257" y="-87.15" font-family="Arial" font-size="8.00">Refresh VendorExtract PRC Remote Health</text>
<text xml:space="preserve" text-anchor="start" x="293" y="-67.4" font-family="Arial" font-size="8.00">Average Duration&#45;0 min</text>
<text xml:space="preserve" text-anchor="start" x="292.62" y="-47.65" font-family="Arial" font-size="8.00">Schedule (None) | IDEA</text>
<text xml:space="preserve" text-anchor="start" x="300.5" y="-27.9" font-family="Arial" font-size="8.00">Last Run: Unknown</text>
<polygon fill="#ff0000" stroke="none" points="252,-1 252,-20.75 419.5,-20.75 419.5,-1 252,-1"/>
<text xml:space="preserve" text-anchor="start" x="305" y="-8.15" font-family="Arial" font-size="8.00">Did not run today</text>
<polygon fill="none" stroke="black" points="251,0 251,-120.5 420.5,-120.5 420.5,0 251,0"/>
</g>
<!-- RemoteHealth.Refresh RemoteHealth&#45;&gt;Vendor Extract.Refresh VendorExtract PRC Remote Health -->
<g id="edge4" class="edge">
<title>RemoteHealth.Refresh RemoteHealth&#45;&gt;Vendor Extract.Refresh VendorExtract PRC Remote Health</title>
<g id="a_edge4"><a xlink:href="https://rhnv-webprod.rhnv.hosted/IDEA-Web/applications/4/entry/57">
<path fill="none" stroke="#5e676f" stroke-dasharray="5,2" d="M335.75,-156.9C335.75,-148.69 335.75,-140.19 335.75,-131.79"/>
<polygon fill="#5e676f" stroke="#5e676f" points="339.25,-131.96 335.75,-121.96 332.25,-131.96 339.25,-131.96"/>
</a>
</g>
</g>
<!-- Ring Deploy Test Sequence 1.Ring Deploy Test Sequence 1 -->
<g id="node6" class="node">
<title>Ring Deploy Test Sequence 1.Ring Deploy Test Sequence 1</title>
<polygon fill="#a487b7" stroke="none" points="135,-412.75 135,-432.5 260.5,-432.5 260.5,-412.75 135,-412.75"/>
<text xml:space="preserve" text-anchor="start" x="140" y="-420.9" font-family="Arial" font-weight="bold" font-size="8.00">Ring Deploy Test Sequence 1</text>
<polygon fill="#ffb255" fill-opacity="0.929412" stroke="none" points="135,-393 135,-412.75 260.5,-412.75 260.5,-393 135,-393"/>
<text xml:space="preserve" text-anchor="start" x="145.25" y="-400.15" font-family="Arial" font-size="8.00">Ring Deploy Test Sequence 1</text>
<text xml:space="preserve" text-anchor="start" x="155" y="-380.4" font-family="Arial" font-size="8.00">Average Duration&#45;0 min</text>
<text xml:space="preserve" text-anchor="start" x="154.62" y="-360.65" font-family="Arial" font-size="8.00">Schedule (None) | IDEA</text>
<text xml:space="preserve" text-anchor="start" x="162.5" y="-340.9" font-family="Arial" font-size="8.00">Last Run: Unknown</text>
<polygon fill="#ff0000" stroke="none" points="135,-314 135,-333.75 260.5,-333.75 260.5,-314 135,-314"/>
<text xml:space="preserve" text-anchor="start" x="167" y="-321.15" font-family="Arial" font-size="8.00">Did not run today</text>
<polygon fill="none" stroke="black" points="134,-313 134,-433.5 261.5,-433.5 261.5,-313 134,-313"/>
</g>
<!-- Ring Deploy Test Sequence 1.Ring Deploy Test Sequence 1&#45;&gt;Ring Deploy Test Sequence 2.Ring Deploy Test Sequence 2 -->
<g id="edge3" class="edge">
<title>Ring Deploy Test Sequence 1.Ring Deploy Test Sequence 1&#45;&gt;Ring Deploy Test Sequence 2.Ring Deploy Test Sequence 2</title>
<g id="a_edge3"><a xlink:href="https://rhnv-webprod.rhnv.hosted/IDEA-Web/applications/4/entry/60" target="_blank">
<path fill="none" stroke="black" d="M197.75,-313.4C197.75,-305.19 197.75,-296.69 197.75,-288.29"/>
<polygon fill="black" stroke="black" points="201.25,-288.46 197.75,-278.46 194.25,-288.46 201.25,-288.46"/>
</a>
</g>
</g>
</g>
</svg>

