<?xml version="1.0" encoding="UTF-8" standalone="no"?>
<!DOCTYPE svg PUBLIC "-//W3C//DTD SVG 1.1//EN"
 "http://www.w3.org/Graphics/SVG/1.1/DTD/svg11.dtd">
<!-- Generated by graphviz version 14.1.2 (20260124.0452)
 -->
<!-- Title: Batch Sequencing &#45; RHNV&#45;EDWPROD Pages: 1 -->
<svg width="454pt" height="361pt"
 viewBox="0.00 0.00 454.00 361.00" xmlns="http://www.w3.org/2000/svg" xmlns:xlink="http://www.w3.org/1999/xlink">
<g id="graph0" class="graph" transform="scale(1 1) rotate(0) translate(4 357)">
<title>Batch Sequencing &#45; RHNV&#45;EDWPROD</title>
<polygon fill="white" stroke="none" points="-4,4 -4,-357 449.5,-357 449.5,4 -4,4"/>
<text xml:space="preserve" text-anchor="start" x="84.38" y="-340.5" font-family="Arial" font-weight="bold" font-size="10.00">Batch Sequencing &#45; RHNV&#45;EDWPROD &#45; Broken References</text>
<text xml:space="preserve" text-anchor="start" x="78" y="-330.5" font-family="Arial" font-size="10.00">Showing only nodes with broken references and their parent nodes</text>
<text xml:space="preserve" text-anchor="start" x="221.25" y="-320.5" font-family="Arial" font-size="10.00"> </text>
<!-- Ring Deploy Test Sequence 2.Ring Deploy Test Sequence 2 -->
<g id="node1" class="node">
<title>Ring Deploy Test Sequence 2.Ring Deploy Test Sequence 2</title>
<polygon fill="#a487b7" stroke="none" points="1,-177.25 1,-197 126.5,-197 126.5,-177.25 1,-177.25"/>
<text xml:space="preserve" text-anchor="start" x="6" y="-185.4" font-family="Arial" font-weight="bold" font-size="8.00">Ring Deploy Test Sequence 2</text>
<polygon fill="#ffb255" fill-opacity="0.929412" stroke="none" points="1,-157.5 1,-177.25 126.5,-177.25 126.5,-157.5 1,-157.5"/>
<text xml:space="preserve" text-anchor="start" x="11.25" y="-164.65" font-family="Arial" font-size="8.00">Ring Deploy Test Sequence 2</text>
<text xml:space="preserve" text-anchor="start" x="21" y="-144.9" font-family="Arial" font-size="8.00">Average Duration&#45;0 min</text>
<polygon fill="#ff0000" stroke="none" points="1,-118 1,-137.75 126.5,-137.75 126.5,-118 1,-118"/>
<text xml:space="preserve" text-anchor="start" x="33" y="-125.15" font-family="Arial" font-size="8.00">Did not run today</text>
<polygon fill="none" stroke="black" points="0,-117 0,-198 127.5,-198 127.5,-117 0,-117"/>
</g>
<!-- CMSClaim.CMSClaim &#45; BNEX (Step #2) -->
<g id="node2" class="node">
<title>CMSClaim.CMSClaim &#45; BNEX (Step #2)</title>
<polygon fill="#cee2ff" stroke="none" points="147,-177.25 147,-197 260.5,-197 260.5,-177.25 147,-177.25"/>
<text xml:space="preserve" text-anchor="start" x="183.88" y="-185.4" font-family="Arial" font-weight="bold" font-size="8.00">CMSClaim</text>
<polygon fill="#ffb255" fill-opacity="0.929412" stroke="none" points="147,-157.5 147,-177.25 260.5,-177.25 260.5,-157.5 147,-157.5"/>
<text xml:space="preserve" text-anchor="start" x="152" y="-164.65" font-family="Arial" font-size="8.00">CMSClaim &#45; BNEX (Step #2)</text>
<text xml:space="preserve" text-anchor="start" x="161" y="-144.9" font-family="Arial" font-size="8.00">Average Duration&#45;0 min</text>
<polygon fill="#ff0000" stroke="none" points="147,-118 147,-137.75 260.5,-137.75 260.5,-118 147,-118"/>
<text xml:space="preserve" text-anchor="start" x="173" y="-125.15" font-family="Arial" font-size="8.00">Did not run today</text>
<polygon fill="none" stroke="black" points="146,-117 146,-198 261.5,-198 261.5,-117 146,-117"/>
</g>
<!-- CMSClaim.CMSClaim &#45; BNEX (Step #1) -->
<g id="node3" class="node">
<title>CMSClaim.CMSClaim &#45; BNEX (Step #1)</title>
<polygon fill="#cee2ff" stroke="none" points="147,-294.25 147,-314 260.5,-314 260.5,-294.25 147,-294.25"/>
<text xml:space="preserve" text-anchor="start" x="183.88" y="-302.4" font-family="Arial" font-weight="bold" font-size="8.00">CMSClaim</text>
<polygon fill="#ffb255" fill-opacity="0.929412" stroke="none" points="147,-274.5 147,-294.25 260.5,-294.25 260.5,-274.5 147,-274.5"/>
<text xml:space="preserve" text-anchor="start" x="152" y="-281.65" font-family="Arial" font-size="8.00">CMSClaim &#45; BNEX (Step #1)</text>
<text xml:space="preserve" text-anchor="start" x="161" y="-261.9" font-family="Arial" font-size="8.00">Average Duration&#45;0 min</text>
<polygon fill="#ff0000" stroke="none" points="147,-235 147,-254.75 260.5,-254.75 260.5,-235 147,-235"/>
<text xml:space="preserve" text-anchor="start" x="173" y="-242.15" font-family="Arial" font-size="8.00">Did not run today</text>
<polygon fill="none" stroke="black" points="146,-234 146,-315 261.5,-315 261.5,-234 146,-234"/>
</g>
<!-- CMSClaim.CMSClaim &#45; BNEX (Step #1)&#45;&gt;CMSClaim.CMSClaim &#45; BNEX (Step #2) -->
<g id="edge2" class="edge">
<title>CMSClaim.CMSClaim &#45; BNEX (Step #1)&#45;&gt;CMSClaim.CMSClaim &#45; BNEX (Step #2)</title>
<g id="a_edge2"><a xlink:href="https://rhnv-webprod.rhnv.hosted/IDEA-Web/applications/4/entry/29" target="_blank">
<path fill="none" stroke="black" d="M203.75,-234.25C203.75,-226.19 203.75,-217.61 203.75,-209.22"/>
<polygon fill="black" stroke="black" points="207.25,-209.48 203.75,-199.48 200.25,-209.48 207.25,-209.48"/>
</a>
</g>
</g>
<!-- COPD.Refresh COPD -->
<g id="node4" class="node">
<title>COPD.Refresh COPD</title>
<polygon fill="#a487b7" stroke="none" points="280.38,-294.25 280.38,-314 441.12,-314 441.12,-294.25 280.38,-294.25"/>
<text xml:space="preserve" text-anchor="start" x="349.12" y="-302.4" font-family="Arial" font-weight="bold" font-size="8.00">COPD</text>
<polygon fill="#ffffff" stroke="none" points="280.38,-274.5 280.38,-294.25 441.12,-294.25 441.12,-274.5 280.38,-274.5"/>
<text xml:space="preserve" text-anchor="start" x="333.75" y="-281.65" font-family="Arial" font-size="8.00">Refresh COPD</text>
<text xml:space="preserve" text-anchor="start" x="313.88" y="-261.9" font-family="Arial" font-size="8.00">Average Duration&#45;110 min</text>
<polygon fill="#69b660" stroke="none" points="280.38,-235 280.38,-254.75 441.12,-254.75 441.12,-235 280.38,-235"/>
<text xml:space="preserve" text-anchor="start" x="285.38" y="-242.15" font-family="Arial" font-size="8.00">Finished at 2026&#45;02&#45;13 14:41:33.8053810</text>
<polygon fill="none" stroke="black" points="279.38,-234 279.38,-315 442.12,-315 442.12,-234 279.38,-234"/>
</g>
<!-- RemoteHealth.Refresh RemoteHealth -->
<g id="node6" class="node">
<title>RemoteHealth.Refresh RemoteHealth</title>
<polygon fill="#cfcfcf" fill-opacity="0.929412" stroke="none" points="313,-177.25 313,-197 408.5,-197 408.5,-177.25 313,-177.25"/>
<text xml:space="preserve" text-anchor="start" x="333" y="-185.4" font-family="Arial" font-weight="bold" font-size="8.00">RemoteHealth</text>
<polygon fill="#ffb255" fill-opacity="0.929412" stroke="none" points="313,-157.5 313,-177.25 408.5,-177.25 408.5,-157.5 313,-157.5"/>
<text xml:space="preserve" text-anchor="start" x="319.5" y="-164.65" font-family="Arial" font-size="8.00">Refresh RemoteHealth</text>
<text xml:space="preserve" text-anchor="start" x="318" y="-144.9" font-family="Arial" font-size="8.00">Average Duration&#45;0 min</text>
<polygon fill="#ff0000" stroke="none" points="313,-118 313,-137.75 408.5,-137.75 408.5,-118 313,-118"/>
<text xml:space="preserve" text-anchor="start" x="330" y="-125.15" font-family="Arial" font-size="8.00">Did not run today</text>
<polygon fill="none" stroke="black" points="312,-117 312,-198 409.5,-198 409.5,-117 312,-117"/>
</g>
<!-- COPD.Refresh COPD&#45;&gt;RemoteHealth.Refresh RemoteHealth -->
<g id="edge1" class="edge">
<title>COPD.Refresh COPD&#45;&gt;RemoteHealth.Refresh RemoteHealth</title>
<g id="a_edge1"><a xlink:href="https://rhnv-webprod.rhnv.hosted/IDEA-Web/applications/4/entry/49">
<path fill="none" stroke="#5e676f" stroke-dasharray="5,2" d="M360.75,-234.25C360.75,-226.19 360.75,-217.61 360.75,-209.22"/>
<polygon fill="#5e676f" stroke="#5e676f" points="364.25,-209.48 360.75,-199.48 357.25,-209.48 364.25,-209.48"/>
</a>
</g>
</g>
<!-- Ring Deploy Test Sequence 1.Ring Deploy Test Sequence 1 -->
<g id="node5" class="node">
<title>Ring Deploy Test Sequence 1.Ring Deploy Test Sequence 1</title>
<polygon fill="#a487b7" stroke="none" points="1,-294.25 1,-314 126.5,-314 126.5,-294.25 1,-294.25"/>
<text xml:space="preserve" text-anchor="start" x="6" y="-302.4" font-family="Arial" font-weight="bold" font-size="8.00">Ring Deploy Test Sequence 1</text>
<polygon fill="#ffb255" fill-opacity="0.929412" stroke="none" points="1,-274.5 1,-294.25 126.5,-294.25 126.5,-274.5 1,-274.5"/>
<text xml:space="preserve" text-anchor="start" x="11.25" y="-281.65" font-family="Arial" font-size="8.00">Ring Deploy Test Sequence 1</text>
<text xml:space="preserve" text-anchor="start" x="21" y="-261.9" font-family="Arial" font-size="8.00">Average Duration&#45;0 min</text>
<polygon fill="#ff0000" stroke="none" points="1,-235 1,-254.75 126.5,-254.75 126.5,-235 1,-235"/>
<text xml:space="preserve" text-anchor="start" x="33" y="-242.15" font-family="Arial" font-size="8.00">Did not run today</text>
<polygon fill="none" stroke="black" points="0,-234 0,-315 127.5,-315 127.5,-234 0,-234"/>
</g>
<!-- Ring Deploy Test Sequence 1.Ring Deploy Test Sequence 1&#45;&gt;Ring Deploy Test Sequence 2.Ring Deploy Test Sequence 2 -->
<g id="edge3" class="edge">
<title>Ring Deploy Test Sequence 1.Ring Deploy Test Sequence 1&#45;&gt;Ring Deploy Test Sequence 2.Ring Deploy Test Sequence 2</title>
<g id="a_edge3"><a xlink:href="https://rhnv-webprod.rhnv.hosted/IDEA-Web/applications/4/entry/60" target="_blank">
<path fill="none" stroke="black" d="M63.75,-234.25C63.75,-226.19 63.75,-217.61 63.75,-209.22"/>
<polygon fill="black" stroke="black" points="67.25,-209.48 63.75,-199.48 60.25,-209.48 67.25,-209.48"/>
</a>
</g>
</g>
<!-- Vendor Extract.Refresh VendorExtract PRC Remote Health -->
<g id="node7" class="node">
<title>Vendor Extract.Refresh VendorExtract PRC Remote Health</title>
<polygon fill="#a487b7" stroke="none" points="277,-60.25 277,-80 444.5,-80 444.5,-60.25 277,-60.25"/>
<text xml:space="preserve" text-anchor="start" x="331.5" y="-68.4" font-family="Arial" font-weight="bold" font-size="8.00">Vendor Extract</text>
<polygon fill="#ffb255" fill-opacity="0.929412" stroke="none" points="277,-40.5 277,-60.25 444.5,-60.25 444.5,-40.5 277,-40.5"/>
<text xml:space="preserve" text-anchor="start" x="282" y="-47.65" font-family="Arial" font-size="8.00">Refresh VendorExtract PRC Remote Health</text>
<text xml:space="preserve" text-anchor="start" x="318" y="-27.9" font-family="Arial" font-size="8.00">Average Duration&#45;0 min</text>
<polygon fill="#ff0000" stroke="none" points="277,-1 277,-20.75 444.5,-20.75 444.5,-1 277,-1"/>
<text xml:space="preserve" text-anchor="start" x="330" y="-8.15" font-family="Arial" font-size="8.00">Did not run today</text>
<polygon fill="none" stroke="black" points="276,0 276,-81 445.5,-81 445.5,0 276,0"/>
</g>
<!-- RemoteHealth.Refresh RemoteHealth&#45;&gt;Vendor Extract.Refresh VendorExtract PRC Remote Health -->
<g id="edge4" class="edge">
<title>RemoteHealth.Refresh RemoteHealth&#45;&gt;Vendor Extract.Refresh VendorExtract PRC Remote Health</title>
<g id="a_edge4"><a xlink:href="https://rhnv-webprod.rhnv.hosted/IDEA-Web/applications/4/entry/57">
<path fill="none" stroke="#5e676f" stroke-dasharray="5,2" d="M360.75,-117.25C360.75,-109.19 360.75,-100.61 360.75,-92.22"/>
<polygon fill="#5e676f" stroke="#5e676f" points="364.25,-92.48 360.75,-82.48 357.25,-92.48 364.25,-92.48"/>
</a>
</g>
</g>
</g>
</svg>

