<?xml version="1.0" encoding="UTF-8" standalone="no"?>
<!DOCTYPE svg PUBLIC "-//W3C//DTD SVG 1.1//EN"
 "http://www.w3.org/Graphics/SVG/1.1/DTD/svg11.dtd">
<!-- Generated by graphviz version 14.1.2 (20260124.0452)
 -->
<!-- Title: Batch Sequencing &#45; RHNV&#45;EDWPROD Pages: 1 -->
<svg width="444pt" height="480pt"
 viewBox="0.00 0.00 444.00 480.00" xmlns="http://www.w3.org/2000/svg" xmlns:xlink="http://www.w3.org/1999/xlink">
<g id="graph0" class="graph" transform="scale(1 1) rotate(0) translate(4 475.5)">
<title>Batch Sequencing &#45; RHNV&#45;EDWPROD</title>
<polygon fill="white" stroke="none" points="-4,4 -4,-475.5 439.5,-475.5 439.5,4 -4,4"/>
<text xml:space="preserve" text-anchor="start" x="79.38" y="-459" font-family="Arial" font-weight="bold" font-size="10.00">Batch Sequencing &#45; RHNV&#45;EDWPROD &#45; Broken References</text>
<text xml:space="preserve" text-anchor="start" x="73" y="-449" font-family="Arial" font-size="10.00">Showing only nodes with broken references and their parent nodes</text>
<text xml:space="preserve" text-anchor="start" x="216.25" y="-439" font-family="Arial" font-size="10.00"> </text>
<!-- CMSClaim.CMSClaim &#45; BNEX (Step #1) -->
<g id="node1" class="node">
<title>CMSClaim.CMSClaim &#45; BNEX (Step #1)</title>
<polygon fill="#cee2ff" stroke="none" points="1,-412.75 1,-432.5 114.5,-432.5 114.5,-412.75 1,-412.75"/>
<text xml:space="preserve" text-anchor="start" x="37.88" y="-420.9" font-family="Arial" font-weight="bold" font-size="8.00">CMSClaim</text>
<polygon fill="#ffb255" fill-opacity="0.929412" stroke="none" points="1,-393 1,-412.75 114.5,-412.75 114.5,-393 1,-393"/>
<text xml:space="preserve" text-anchor="start" x="6" y="-400.15" font-family="Arial" font-size="8.00">CMSClaim &#45; BNEX (Step #1)</text>
<text xml:space="preserve" text-anchor="start" x="15" y="-380.4" font-family="Arial" font-size="8.00">Average Duration&#45;0 min</text>
<text xml:space="preserve" text-anchor="start" x="14.62" y="-360.65" font-family="Arial" font-size="8.00">Schedule (None) | IDEA</text>
<text xml:space="preserve" text-anchor="start" x="40.5" y="-340.9" font-family="Arial" font-size="8.00">Last Run </text>
<polygon fill="#ff0000" stroke="none" points="1,-314 1,-333.75 114.5,-333.75 114.5,-314 1,-314"/>
<text xml:space="preserve" text-anchor="start" x="27" y="-321.15" font-family="Arial" font-size="8.00">Did not run today</text>
<polygon fill="none" stroke="black" points="0,-313 0,-433.5 115.5,-433.5 115.5,-313 0,-313"/>
</g>
<!-- CMSClaim.CMSClaim &#45; BNEX (Step #2) -->
<g id="node4" class="node">
<title>CMSClaim.CMSClaim &#45; BNEX (Step #2)</title>
<polygon fill="#cee2ff" stroke="none" points="1,-256.25 1,-276 114.5,-276 114.5,-256.25 1,-256.25"/>
<text xml:space="preserve" text-anchor="start" x="37.88" y="-264.4" font-family="Arial" font-weight="bold" font-size="8.00">CMSClaim</text>
<polygon fill="#ffb255" fill-opacity="0.929412" stroke="none" points="1,-236.5 1,-256.25 114.5,-256.25 114.5,-236.5 1,-236.5"/>
<text xml:space="preserve" text-anchor="start" x="6" y="-243.65" font-family="Arial" font-size="8.00">CMSClaim &#45; BNEX (Step #2)</text>
<text xml:space="preserve" text-anchor="start" x="15" y="-223.9" font-family="Arial" font-size="8.00">Average Duration&#45;0 min</text>
<text xml:space="preserve" text-anchor="start" x="14.62" y="-204.15" font-family="Arial" font-size="8.00">Schedule (None) | IDEA</text>
<text xml:space="preserve" text-anchor="start" x="40.5" y="-184.4" font-family="Arial" font-size="8.00">Last Run </text>
<polygon fill="#ff0000" stroke="none" points="1,-157.5 1,-177.25 114.5,-177.25 114.5,-157.5 1,-157.5"/>
<text xml:space="preserve" text-anchor="start" x="27" y="-164.65" font-family="Arial" font-size="8.00">Did not run today</text>
<polygon fill="none" stroke="black" points="0,-156.5 0,-277 115.5,-277 115.5,-156.5 0,-156.5"/>
</g>
<!-- CMSClaim.CMSClaim &#45; BNEX (Step #1)&#45;&gt;CMSClaim.CMSClaim &#45; BNEX (Step #2) -->
<g id="edge2" class="edge">
<title>CMSClaim.CMSClaim &#45; BNEX (Step #1)&#45;&gt;CMSClaim.CMSClaim &#45; BNEX (Step #2)</title>
<g id="a_edge2"><a xlink:href="https://rhnv-webprod.rhnv.hosted/IDEA-Web/applications/4/entry/29" target="_blank">
<path fill="none" stroke="black" d="M57.75,-313.4C57.75,-305.19 57.75,-296.69 57.75,-288.29"/>
<polygon fill="black" stroke="black" points="61.25,-288.46 57.75,-278.46 54.25,-288.46 61.25,-288.46"/>
</a>
</g>
</g>
<!-- COPD.Refresh COPD -->
<g id="node2" class="node">
<title>COPD.Refresh COPD</title>
<polygon fill="#a487b7" stroke="none" points="134.75,-412.75 134.75,-432.5 288.75,-432.5 288.75,-412.75 134.75,-412.75"/>
<text xml:space="preserve" text-anchor="start" x="200.12" y="-420.9" font-family="Arial" font-weight="bold" font-size="8.00">COPD</text>
<polygon fill="#ffffff" stroke="none" points="134.75,-393 134.75,-412.75 288.75,-412.75 288.75,-393 134.75,-393"/>
<text xml:space="preserve" text-anchor="start" x="184.75" y="-400.15" font-family="Arial" font-size="8.00">Refresh COPD</text>
<text xml:space="preserve" text-anchor="start" x="164.88" y="-380.4" font-family="Arial" font-size="8.00">Average Duration&#45;110 min</text>
<text xml:space="preserve" text-anchor="start" x="161.5" y="-360.65" font-family="Arial" font-size="8.00">Scheduled (Disabled) | Daily</text>
<text xml:space="preserve" text-anchor="start" x="139.75" y="-340.9" font-family="Arial" font-size="8.00">Last Run 2026&#45;02&#45;22 14:26:04.6655929</text>
<polygon fill="#ff0000" stroke="none" points="134.75,-314 134.75,-333.75 288.75,-333.75 288.75,-314 134.75,-314"/>
<text xml:space="preserve" text-anchor="start" x="181" y="-321.15" font-family="Arial" font-size="8.00">Did not run today</text>
<polygon fill="none" stroke="black" points="133.75,-313 133.75,-433.5 289.75,-433.5 289.75,-313 133.75,-313"/>
</g>
<!-- RemoteHealth.Refresh RemoteHealth -->
<g id="node5" class="node">
<title>RemoteHealth.Refresh RemoteHealth</title>
<polygon fill="#cfcfcf" fill-opacity="0.929412" stroke="none" points="163.62,-256.25 163.62,-276 259.88,-276 259.88,-256.25 163.62,-256.25"/>
<text xml:space="preserve" text-anchor="start" x="184" y="-264.4" font-family="Arial" font-weight="bold" font-size="8.00">RemoteHealth</text>
<polygon fill="#ffb255" fill-opacity="0.929412" stroke="none" points="163.62,-236.5 163.62,-256.25 259.88,-256.25 259.88,-236.5 163.62,-236.5"/>
<text xml:space="preserve" text-anchor="start" x="170.5" y="-243.65" font-family="Arial" font-size="8.00">Refresh RemoteHealth</text>
<text xml:space="preserve" text-anchor="start" x="169" y="-223.9" font-family="Arial" font-size="8.00">Average Duration&#45;0 min</text>
<text xml:space="preserve" text-anchor="start" x="168.62" y="-204.15" font-family="Arial" font-size="8.00">Schedule (None) | IDEA</text>
<text xml:space="preserve" text-anchor="start" x="194.5" y="-184.4" font-family="Arial" font-size="8.00">Last Run </text>
<polygon fill="#ff0000" stroke="none" points="163.62,-157.5 163.62,-177.25 259.88,-177.25 259.88,-157.5 163.62,-157.5"/>
<text xml:space="preserve" text-anchor="start" x="181" y="-164.65" font-family="Arial" font-size="8.00">Did not run today</text>
<polygon fill="none" stroke="black" points="162.62,-156.5 162.62,-277 260.88,-277 260.88,-156.5 162.62,-156.5"/>
</g>
<!-- COPD.Refresh COPD&#45;&gt;RemoteHealth.Refresh RemoteHealth -->
<g id="edge1" class="edge">
<title>COPD.Refresh COPD&#45;&gt;RemoteHealth.Refresh RemoteHealth</title>
<g id="a_edge1"><a xlink:href="https://rhnv-webprod.rhnv.hosted/IDEA-Web/applications/4/entry/49">
<path fill="none" stroke="#5e676f" stroke-dasharray="5,2" d="M211.75,-313.4C211.75,-305.19 211.75,-296.69 211.75,-288.29"/>
<polygon fill="#5e676f" stroke="#5e676f" points="215.25,-288.46 211.75,-278.46 208.25,-288.46 215.25,-288.46"/>
</a>
</g>
</g>
<!-- Ring Deploy Test Sequence 1.Ring Deploy Test Sequence 1 -->
<g id="node3" class="node">
<title>Ring Deploy Test Sequence 1.Ring Deploy Test Sequence 1</title>
<polygon fill="#a487b7" stroke="none" points="309,-412.75 309,-432.5 434.5,-432.5 434.5,-412.75 309,-412.75"/>
<text xml:space="preserve" text-anchor="start" x="314" y="-420.9" font-family="Arial" font-weight="bold" font-size="8.00">Ring Deploy Test Sequence 1</text>
<polygon fill="#ffb255" fill-opacity="0.929412" stroke="none" points="309,-393 309,-412.75 434.5,-412.75 434.5,-393 309,-393"/>
<text xml:space="preserve" text-anchor="start" x="319.25" y="-400.15" font-family="Arial" font-size="8.00">Ring Deploy Test Sequence 1</text>
<text xml:space="preserve" text-anchor="start" x="329" y="-380.4" font-family="Arial" font-size="8.00">Average Duration&#45;0 min</text>
<text xml:space="preserve" text-anchor="start" x="328.62" y="-360.65" font-family="Arial" font-size="8.00">Schedule (None) | IDEA</text>
<text xml:space="preserve" text-anchor="start" x="354.5" y="-340.9" font-family="Arial" font-size="8.00">Last Run </text>
<polygon fill="#ff0000" stroke="none" points="309,-314 309,-333.75 434.5,-333.75 434.5,-314 309,-314"/>
<text xml:space="preserve" text-anchor="start" x="341" y="-321.15" font-family="Arial" font-size="8.00">Did not run today</text>
<polygon fill="none" stroke="black" points="308,-313 308,-433.5 435.5,-433.5 435.5,-313 308,-313"/>
</g>
<!-- Ring Deploy Test Sequence 2.Ring Deploy Test Sequence 2 -->
<g id="node6" class="node">
<title>Ring Deploy Test Sequence 2.Ring Deploy Test Sequence 2</title>
<polygon fill="#a487b7" stroke="none" points="309,-256.25 309,-276 434.5,-276 434.5,-256.25 309,-256.25"/>
<text xml:space="preserve" text-anchor="start" x="314" y="-264.4" font-family="Arial" font-weight="bold" font-size="8.00">Ring Deploy Test Sequence 2</text>
<polygon fill="#ffb255" fill-opacity="0.929412" stroke="none" points="309,-236.5 309,-256.25 434.5,-256.25 434.5,-236.5 309,-236.5"/>
<text xml:space="preserve" text-anchor="start" x="319.25" y="-243.65" font-family="Arial" font-size="8.00">Ring Deploy Test Sequence 2</text>
<text xml:space="preserve" text-anchor="start" x="329" y="-223.9" font-family="Arial" font-size="8.00">Average Duration&#45;0 min</text>
<text xml:space="preserve" text-anchor="start" x="328.62" y="-204.15" font-family="Arial" font-size="8.00">Schedule (None) | IDEA</text>
<text xml:space="preserve" text-anchor="start" x="354.5" y="-184.4" font-family="Arial" font-size="8.00">Last Run </text>
<polygon fill="#ff0000" stroke="none" points="309,-157.5 309,-177.25 434.5,-177.25 434.5,-157.5 309,-157.5"/>
<text xml:space="preserve" text-anchor="start" x="341" y="-164.65" font-family="Arial" font-size="8.00">Did not run today</text>
<polygon fill="none" stroke="black" points="308,-156.5 308,-277 435.5,-277 435.5,-156.5 308,-156.5"/>
</g>
<!-- Ring Deploy Test Sequence 1.Ring Deploy Test Sequence 1&#45;&gt;Ring Deploy Test Sequence 2.Ring Deploy Test Sequence 2 -->
<g id="edge3" class="edge">
<title>Ring Deploy Test Sequence 1.Ring Deploy Test Sequence 1&#45;&gt;Ring Deploy Test Sequence 2.Ring Deploy Test Sequence 2</title>
<g id="a_edge3"><a xlink:href="https://rhnv-webprod.rhnv.hosted/IDEA-Web/applications/4/entry/60" target="_blank">
<path fill="none" stroke="black" d="M371.75,-313.4C371.75,-305.19 371.75,-296.69 371.75,-288.29"/>
<polygon fill="black" stroke="black" points="375.25,-288.46 371.75,-278.46 368.25,-288.46 375.25,-288.46"/>
</a>
</g>
</g>
<!-- Vendor Extract.Refresh VendorExtract PRC Remote Health -->
<g id="node7" class="node">
<title>Vendor Extract.Refresh VendorExtract PRC Remote Health</title>
<polygon fill="#a487b7" stroke="none" points="128,-99.75 128,-119.5 295.5,-119.5 295.5,-99.75 128,-99.75"/>
<text xml:space="preserve" text-anchor="start" x="182.5" y="-107.9" font-family="Arial" font-weight="bold" font-size="8.00">Vendor Extract</text>
<polygon fill="#ffb255" fill-opacity="0.929412" stroke="none" points="128,-80 128,-99.75 295.5,-99.75 295.5,-80 128,-80"/>
<text xml:space="preserve" text-anchor="start" x="133" y="-87.15" font-family="Arial" font-size="8.00">Refresh VendorExtract PRC Remote Health</text>
<text xml:space="preserve" text-anchor="start" x="169" y="-67.4" font-family="Arial" font-size="8.00">Average Duration&#45;0 min</text>
<text xml:space="preserve" text-anchor="start" x="168.62" y="-47.65" font-family="Arial" font-size="8.00">Schedule (None) | IDEA</text>
<text xml:space="preserve" text-anchor="start" x="194.5" y="-27.9" font-family="Arial" font-size="8.00">Last Run </text>
<polygon fill="#ff0000" stroke="none" points="128,-1 128,-20.75 295.5,-20.75 295.5,-1 128,-1"/>
<text xml:space="preserve" text-anchor="start" x="181" y="-8.15" font-family="Arial" font-size="8.00">Did not run today</text>
<polygon fill="none" stroke="black" points="127,0 127,-120.5 296.5,-120.5 296.5,0 127,0"/>
</g>
<!-- RemoteHealth.Refresh RemoteHealth&#45;&gt;Vendor Extract.Refresh VendorExtract PRC Remote Health -->
<g id="edge4" class="edge">
<title>RemoteHealth.Refresh RemoteHealth&#45;&gt;Vendor Extract.Refresh VendorExtract PRC Remote Health</title>
<g id="a_edge4"><a xlink:href="https://rhnv-webprod.rhnv.hosted/IDEA-Web/applications/4/entry/57">
<path fill="none" stroke="#5e676f" stroke-dasharray="5,2" d="M211.75,-156.9C211.75,-148.69 211.75,-140.19 211.75,-131.79"/>
<polygon fill="#5e676f" stroke="#5e676f" points="215.25,-131.96 211.75,-121.96 208.25,-131.96 215.25,-131.96"/>
</a>
</g>
</g>
</g>
</svg>

