<?xml version="1.0" encoding="UTF-8" standalone="no"?>
<!DOCTYPE svg PUBLIC "-//W3C//DTD SVG 1.1//EN"
 "http://www.w3.org/Graphics/SVG/1.1/DTD/svg11.dtd">
<!-- Generated by graphviz version 14.1.2 (20260124.0452)
 -->
<!-- Title: Batch Sequencing &#45; RHNV&#45;EDWDEV Pages: 1 -->
<svg width="314pt" height="167pt"
 viewBox="0.00 0.00 314.00 167.00" xmlns="http://www.w3.org/2000/svg" xmlns:xlink="http://www.w3.org/1999/xlink">
<g id="graph0" class="graph" transform="scale(1 1) rotate(0) translate(4 162.5)">
<title>Batch Sequencing &#45; RHNV&#45;EDWDEV</title>
<polygon fill="white" stroke="none" points="-4,4 -4,-162.5 309.5,-162.5 309.5,4 -4,4"/>
<text xml:space="preserve" text-anchor="start" x="18.5" y="-146" font-family="Arial" font-weight="bold" font-size="10.00">Batch Sequencing &#45; RHNV&#45;EDWDEV &#45; Broken References</text>
<text xml:space="preserve" text-anchor="start" x="8" y="-136" font-family="Arial" font-size="10.00">Showing only nodes with broken references and their parent nodes</text>
<text xml:space="preserve" text-anchor="start" x="151.25" y="-126" font-family="Arial" font-size="10.00"> </text>
<!-- LaborManagement.Refresh Labor Management -->
<g id="node1" class="node">
<title>LaborManagement.Refresh Labor Management</title>
<polygon fill="#a487b7" stroke="none" points="97.12,-99.75 97.12,-119.5 208.38,-119.5 208.38,-99.75 97.12,-99.75"/>
<text xml:space="preserve" text-anchor="start" x="116" y="-107.9" font-family="Arial" font-weight="bold" font-size="8.00">LaborManagement</text>
<polygon fill="#ffb255" fill-opacity="0.929412" stroke="none" points="97.12,-80 97.12,-99.75 208.38,-99.75 208.38,-80 97.12,-80"/>
<text xml:space="preserve" text-anchor="start" x="102.12" y="-87.15" font-family="Arial" font-size="8.00">Refresh Labor Management</text>
<text xml:space="preserve" text-anchor="start" x="110" y="-67.4" font-family="Arial" font-size="8.00">Average Duration&#45;0 min</text>
<text xml:space="preserve" text-anchor="start" x="109.62" y="-47.65" font-family="Arial" font-size="8.00">Schedule (None) | IDEA</text>
<text xml:space="preserve" text-anchor="start" x="135.5" y="-27.9" font-family="Arial" font-size="8.00">Last Run </text>
<polygon fill="#ff0000" stroke="none" points="97.12,-1 97.12,-20.75 208.38,-20.75 208.38,-1 97.12,-1"/>
<text xml:space="preserve" text-anchor="start" x="122" y="-8.15" font-family="Arial" font-size="8.00">Did not run today</text>
<polygon fill="none" stroke="black" points="96.12,0 96.12,-120.5 209.38,-120.5 209.38,0 96.12,0"/>
</g>
</g>
</svg>

