<?xml version="1.0" encoding="UTF-8" standalone="no"?>
<!DOCTYPE svg PUBLIC "-//W3C//DTD SVG 1.1//EN"
 "http://www.w3.org/Graphics/SVG/1.1/DTD/svg11.dtd">
<!-- Generated by graphviz version 14.1.2 (20260124.0452)
 -->
<!-- Title: Batch Sequencing &#45; RHNV&#45;EDWPROD Pages: 1 -->
<svg width="1874pt" height="361pt"
 viewBox="0.00 0.00 1874.00 361.00" xmlns="http://www.w3.org/2000/svg" xmlns:xlink="http://www.w3.org/1999/xlink">
<g id="graph0" class="graph" transform="scale(1 1) rotate(0) translate(4 357)">
<title>Batch Sequencing &#45; RHNV&#45;EDWPROD</title>
<polygon fill="white" stroke="none" points="-4,4 -4,-357 1870.38,-357 1870.38,4 -4,4"/>
<text xml:space="preserve" text-anchor="start" x="794.44" y="-340.5" font-family="Arial" font-weight="bold" font-size="10.00">Batch Sequencing &#45; RHNV&#45;EDWPROD &#45; Did Not Run Today</text>
<text xml:space="preserve" text-anchor="start" x="801.19" y="-330.5" font-family="Arial" font-size="10.00">Showing only batches that did not run and their parent nodes</text>
<text xml:space="preserve" text-anchor="start" x="931.69" y="-320.5" font-family="Arial" font-size="10.00"> </text>
<!-- Epic.Epic &#45; HTH Monthly on 2nd -->
<g id="node1" class="node">
<title>Epic.Epic &#45; HTH Monthly on 2nd</title>
<polygon fill="#cee2ff" stroke="none" points="8.5,-294.25 8.5,-314 115.25,-314 115.25,-294.25 8.5,-294.25"/>
<text xml:space="preserve" text-anchor="start" x="53.25" y="-302.4" font-family="Arial" font-weight="bold" font-size="8.00">Epic</text>
<polygon fill="#ffffff" stroke="none" points="8.5,-274.5 8.5,-294.25 115.25,-294.25 115.25,-274.5 8.5,-274.5"/>
<text xml:space="preserve" text-anchor="start" x="13.5" y="-281.65" font-family="Arial" font-size="8.00">Epic &#45; HTH Monthly on 2nd</text>
<text xml:space="preserve" text-anchor="start" x="19.12" y="-261.9" font-family="Arial" font-size="8.00">Average Duration&#45;5 min</text>
<polygon fill="#ff0000" stroke="none" points="8.5,-235 8.5,-254.75 115.25,-254.75 115.25,-235 8.5,-235"/>
<text xml:space="preserve" text-anchor="start" x="31.12" y="-242.15" font-family="Arial" font-size="8.00">Did not run today</text>
<polygon fill="none" stroke="black" points="7.5,-234 7.5,-315 116.25,-315 116.25,-234 7.5,-234"/>
</g>
<!-- Tapestry.Tapestry &#45; HTH Monthly on 2nd -->
<g id="node25" class="node">
<title>Tapestry.Tapestry &#45; HTH Monthly on 2nd</title>
<polygon fill="#a487b7" stroke="none" points="1,-177.25 1,-197 122.75,-197 122.75,-177.25 1,-177.25"/>
<text xml:space="preserve" text-anchor="start" x="45" y="-185.4" font-family="Arial" font-weight="bold" font-size="8.00">Tapestry</text>
<polygon fill="#ffffff" stroke="none" points="1,-157.5 1,-177.25 122.75,-177.25 122.75,-157.5 1,-157.5"/>
<text xml:space="preserve" text-anchor="start" x="6" y="-164.65" font-family="Arial" font-size="8.00">Tapestry &#45; HTH Monthly on 2nd</text>
<text xml:space="preserve" text-anchor="start" x="16.88" y="-144.9" font-family="Arial" font-size="8.00">Average Duration&#45;18 min</text>
<polygon fill="#ff0000" stroke="none" points="1,-118 1,-137.75 122.75,-137.75 122.75,-118 1,-118"/>
<text xml:space="preserve" text-anchor="start" x="31.12" y="-125.15" font-family="Arial" font-size="8.00">Did not run today</text>
<polygon fill="none" stroke="black" points="0,-117 0,-198 123.75,-198 123.75,-117 0,-117"/>
</g>
<!-- Epic.Epic &#45; HTH Monthly on 2nd&#45;&gt;Tapestry.Tapestry &#45; HTH Monthly on 2nd -->
<g id="edge13" class="edge">
<title>Epic.Epic &#45; HTH Monthly on 2nd&#45;&gt;Tapestry.Tapestry &#45; HTH Monthly on 2nd</title>
<g id="a_edge13"><a xlink:href="https://rhnv-webprod.rhnv.hosted/IDEA-Web/applications/4/entry/69" target="_blank">
<path fill="none" stroke="black" d="M61.88,-234.25C61.88,-226.19 61.88,-217.61 61.88,-209.22"/>
<polygon fill="black" stroke="black" points="65.38,-209.48 61.88,-199.48 58.38,-209.48 65.38,-209.48"/>
</a>
</g>
</g>
<!-- PRC.Refresh PRC File -->
<g id="node2" class="node">
<title>PRC.Refresh PRC File</title>
<polygon fill="#cee2ff" stroke="none" points="146.12,-294.25 146.12,-314 241.62,-314 241.62,-294.25 146.12,-294.25"/>
<text xml:space="preserve" text-anchor="start" x="185.25" y="-302.4" font-family="Arial" font-weight="bold" font-size="8.00">PRC</text>
<polygon fill="#ffffff" stroke="none" points="146.12,-274.5 146.12,-294.25 241.62,-294.25 241.62,-274.5 146.12,-274.5"/>
<text xml:space="preserve" text-anchor="start" x="162.38" y="-281.65" font-family="Arial" font-size="8.00">Refresh PRC File</text>
<text xml:space="preserve" text-anchor="start" x="151.12" y="-261.9" font-family="Arial" font-size="8.00">Average Duration&#45;4 min</text>
<polygon fill="#ff0000" stroke="none" points="146.12,-235 146.12,-254.75 241.62,-254.75 241.62,-235 146.12,-235"/>
<text xml:space="preserve" text-anchor="start" x="163.12" y="-242.15" font-family="Arial" font-size="8.00">Did not run today</text>
<polygon fill="none" stroke="black" points="145.12,-234 145.12,-315 242.62,-315 242.62,-234 145.12,-234"/>
</g>
<!-- PRC.Refresh PRC Incremental -->
<g id="node17" class="node">
<title>PRC.Refresh PRC Incremental</title>
<polygon fill="#cee2ff" stroke="none" points="142.75,-177.25 142.75,-197 245,-197 245,-177.25 142.75,-177.25"/>
<text xml:space="preserve" text-anchor="start" x="185.25" y="-185.4" font-family="Arial" font-weight="bold" font-size="8.00">PRC</text>
<polygon fill="#ffffff" stroke="none" points="142.75,-157.5 142.75,-177.25 245,-177.25 245,-157.5 142.75,-157.5"/>
<text xml:space="preserve" text-anchor="start" x="147.75" y="-164.65" font-family="Arial" font-size="8.00">Refresh PRC Incremental</text>
<text xml:space="preserve" text-anchor="start" x="151.12" y="-144.9" font-family="Arial" font-size="8.00">Average Duration&#45;2 min</text>
<polygon fill="#ff0000" stroke="none" points="142.75,-118 142.75,-137.75 245,-137.75 245,-118 142.75,-118"/>
<text xml:space="preserve" text-anchor="start" x="163.12" y="-125.15" font-family="Arial" font-size="8.00">Did not run today</text>
<polygon fill="none" stroke="black" points="141.75,-117 141.75,-198 246,-198 246,-117 141.75,-117"/>
</g>
<!-- PRC.Refresh PRC File&#45;&gt;PRC.Refresh PRC Incremental -->
<g id="edge4" class="edge">
<title>PRC.Refresh PRC File&#45;&gt;PRC.Refresh PRC Incremental</title>
<g id="a_edge4"><a xlink:href="https://rhnv-webprod.rhnv.hosted/IDEA-Web/applications/4/entry/37" target="_blank">
<path fill="none" stroke="black" d="M193.88,-234.25C193.88,-226.19 193.88,-217.61 193.88,-209.22"/>
<polygon fill="black" stroke="black" points="197.38,-209.48 193.88,-199.48 190.38,-209.48 197.38,-209.48"/>
</a>
</g>
</g>
<!-- Ring Deploy Test Sequence 2.Ring Deploy Test Sequence 2 -->
<g id="node3" class="node">
<title>Ring Deploy Test Sequence 2.Ring Deploy Test Sequence 2</title>
<polygon fill="#a487b7" stroke="none" points="265.12,-177.25 265.12,-197 390.62,-197 390.62,-177.25 265.12,-177.25"/>
<text xml:space="preserve" text-anchor="start" x="270.12" y="-185.4" font-family="Arial" font-weight="bold" font-size="8.00">Ring Deploy Test Sequence 2</text>
<polygon fill="#ffb255" fill-opacity="0.929412" stroke="none" points="265.12,-157.5 265.12,-177.25 390.62,-177.25 390.62,-157.5 265.12,-157.5"/>
<text xml:space="preserve" text-anchor="start" x="275.38" y="-164.65" font-family="Arial" font-size="8.00">Ring Deploy Test Sequence 2</text>
<text xml:space="preserve" text-anchor="start" x="285.12" y="-144.9" font-family="Arial" font-size="8.00">Average Duration&#45;0 min</text>
<polygon fill="#ff0000" stroke="none" points="265.12,-118 265.12,-137.75 390.62,-137.75 390.62,-118 265.12,-118"/>
<text xml:space="preserve" text-anchor="start" x="297.12" y="-125.15" font-family="Arial" font-size="8.00">Did not run today</text>
<polygon fill="none" stroke="black" points="264.12,-117 264.12,-198 391.62,-198 391.62,-117 264.12,-117"/>
</g>
<!-- CMSClaim.CMSClaim &#45; QALR/QASSGN (Step#2) -->
<g id="node4" class="node">
<title>CMSClaim.CMSClaim &#45; QALR/QASSGN (Step#2)</title>
<polygon fill="#cee2ff" stroke="none" points="410.25,-177.25 410.25,-197 557.5,-197 557.5,-177.25 410.25,-177.25"/>
<text xml:space="preserve" text-anchor="start" x="464" y="-185.4" font-family="Arial" font-weight="bold" font-size="8.00">CMSClaim</text>
<polygon fill="#ffffff" stroke="none" points="410.25,-157.5 410.25,-177.25 557.5,-177.25 557.5,-157.5 410.25,-157.5"/>
<text xml:space="preserve" text-anchor="start" x="415.25" y="-164.65" font-family="Arial" font-size="8.00">CMSClaim &#45; QALR/QASSGN (Step#2)</text>
<text xml:space="preserve" text-anchor="start" x="441.12" y="-144.9" font-family="Arial" font-size="8.00">Average Duration&#45;0 min</text>
<polygon fill="#ff0000" stroke="none" points="410.25,-118 410.25,-137.75 557.5,-137.75 557.5,-118 410.25,-118"/>
<text xml:space="preserve" text-anchor="start" x="453.12" y="-125.15" font-family="Arial" font-size="8.00">Did not run today</text>
<polygon fill="none" stroke="black" points="409.25,-117 409.25,-198 558.5,-198 558.5,-117 409.25,-117"/>
</g>
<!-- SharedLocalClinical.Refresh SharedLocalClinical (Weekly Full) -->
<g id="node5" class="node">
<title>SharedLocalClinical.Refresh SharedLocalClinical (Weekly Full)</title>
<polygon fill="#a487b7" stroke="none" points="577.25,-177.25 577.25,-197 736.5,-197 736.5,-177.25 577.25,-177.25"/>
<text xml:space="preserve" text-anchor="start" x="617.5" y="-185.4" font-family="Arial" font-weight="bold" font-size="8.00">SharedLocalClinical</text>
<polygon fill="#ffffff" stroke="none" points="577.25,-157.5 577.25,-177.25 736.5,-177.25 736.5,-157.5 577.25,-157.5"/>
<text xml:space="preserve" text-anchor="start" x="582.25" y="-164.65" font-family="Arial" font-size="8.00">Refresh SharedLocalClinical (Weekly Full)</text>
<text xml:space="preserve" text-anchor="start" x="609.62" y="-144.9" font-family="Arial" font-size="8.00">Average Duration&#45;207 min</text>
<polygon fill="#ff0000" stroke="none" points="577.25,-118 577.25,-137.75 736.5,-137.75 736.5,-118 577.25,-118"/>
<text xml:space="preserve" text-anchor="start" x="626.12" y="-125.15" font-family="Arial" font-size="8.00">Did not run today</text>
<polygon fill="none" stroke="black" points="576.25,-117 576.25,-198 737.5,-198 737.5,-117 576.25,-117"/>
</g>
<!-- MedicalGroupCostingAndFinance.Refresh MedicalGroup CostingAndFinance -->
<g id="node6" class="node">
<title>MedicalGroupCostingAndFinance.Refresh MedicalGroup CostingAndFinance</title>
<polygon fill="#a487b7" stroke="none" points="756.75,-177.25 756.75,-197 919,-197 919,-177.25 756.75,-177.25"/>
<text xml:space="preserve" text-anchor="start" x="770.75" y="-185.4" font-family="Arial" font-weight="bold" font-size="8.00">MedicalGroupCostingAndFinance</text>
<polygon fill="#ffffff" stroke="none" points="756.75,-157.5 756.75,-177.25 919,-177.25 919,-157.5 756.75,-157.5"/>
<text xml:space="preserve" text-anchor="start" x="761.75" y="-164.65" font-family="Arial" font-size="8.00">Refresh MedicalGroup CostingAndFinance</text>
<text xml:space="preserve" text-anchor="start" x="790.62" y="-144.9" font-family="Arial" font-size="8.00">Average Duration&#45;164 min</text>
<polygon fill="#ff0000" stroke="none" points="756.75,-118 756.75,-137.75 919,-137.75 919,-118 756.75,-118"/>
<text xml:space="preserve" text-anchor="start" x="807.12" y="-125.15" font-family="Arial" font-size="8.00">Did not run today</text>
<polygon fill="none" stroke="black" points="755.75,-117 755.75,-198 920,-198 920,-117 755.75,-117"/>
</g>
<!-- CareProcessCostingAndFinance.Refresh CareProcess CostingAndFinance -->
<g id="node13" class="node">
<title>CareProcessCostingAndFinance.Refresh CareProcess CostingAndFinance</title>
<polygon fill="#a487b7" stroke="none" points="758.25,-60.25 758.25,-80 917.5,-80 917.5,-60.25 758.25,-60.25"/>
<text xml:space="preserve" text-anchor="start" x="773.38" y="-68.4" font-family="Arial" font-weight="bold" font-size="8.00">CareProcessCostingAndFinance</text>
<polygon fill="#ffffff" stroke="none" points="758.25,-40.5 758.25,-60.25 917.5,-60.25 917.5,-40.5 758.25,-40.5"/>
<text xml:space="preserve" text-anchor="start" x="763.25" y="-47.65" font-family="Arial" font-size="8.00">Refresh CareProcess CostingAndFinance</text>
<text xml:space="preserve" text-anchor="start" x="792.88" y="-27.9" font-family="Arial" font-size="8.00">Average Duration&#45;27 min</text>
<polygon fill="#ff0000" stroke="none" points="758.25,-1 758.25,-20.75 917.5,-20.75 917.5,-1 758.25,-1"/>
<text xml:space="preserve" text-anchor="start" x="807.12" y="-8.15" font-family="Arial" font-size="8.00">Did not run today</text>
<polygon fill="none" stroke="black" points="757.25,0 757.25,-81 918.5,-81 918.5,0 757.25,0"/>
</g>
<!-- MedicalGroupCostingAndFinance.Refresh MedicalGroup CostingAndFinance&#45;&gt;CareProcessCostingAndFinance.Refresh CareProcess CostingAndFinance -->
<g id="edge10" class="edge">
<title>MedicalGroupCostingAndFinance.Refresh MedicalGroup CostingAndFinance&#45;&gt;CareProcessCostingAndFinance.Refresh CareProcess CostingAndFinance</title>
<g id="a_edge10"><a xlink:href="https://rhnv-webprod.rhnv.hosted/IDEA-Web/applications/4/entry/32" target="_blank">
<path fill="none" stroke="black" d="M837.88,-117.25C837.88,-109.19 837.88,-100.61 837.88,-92.22"/>
<polygon fill="black" stroke="black" points="841.38,-92.48 837.88,-82.48 834.38,-92.48 841.38,-92.48"/>
</a>
</g>
</g>
<!-- CMSClaim.CMSClaim &#45; BNEX (Step #2) -->
<g id="node7" class="node">
<title>CMSClaim.CMSClaim &#45; BNEX (Step #2)</title>
<polygon fill="#cee2ff" stroke="none" points="941.12,-177.25 941.12,-197 1054.62,-197 1054.62,-177.25 941.12,-177.25"/>
<text xml:space="preserve" text-anchor="start" x="978" y="-185.4" font-family="Arial" font-weight="bold" font-size="8.00">CMSClaim</text>
<polygon fill="#ffb255" fill-opacity="0.929412" stroke="none" points="941.12,-157.5 941.12,-177.25 1054.62,-177.25 1054.62,-157.5 941.12,-157.5"/>
<text xml:space="preserve" text-anchor="start" x="946.12" y="-164.65" font-family="Arial" font-size="8.00">CMSClaim &#45; BNEX (Step #2)</text>
<text xml:space="preserve" text-anchor="start" x="955.12" y="-144.9" font-family="Arial" font-size="8.00">Average Duration&#45;0 min</text>
<polygon fill="#ff0000" stroke="none" points="941.12,-118 941.12,-137.75 1054.62,-137.75 1054.62,-118 941.12,-118"/>
<text xml:space="preserve" text-anchor="start" x="967.12" y="-125.15" font-family="Arial" font-size="8.00">Did not run today</text>
<polygon fill="none" stroke="black" points="940.12,-117 940.12,-198 1055.62,-198 1055.62,-117 940.12,-117"/>
</g>
<!-- CMSClaim.CMSClaim &#45; CCLF0&#45;9, A,B (step#1) -->
<g id="node8" class="node">
<title>CMSClaim.CMSClaim &#45; CCLF0&#45;9, A,B (step#1)</title>
<polygon fill="#cee2ff" stroke="none" points="1074.75,-294.25 1074.75,-314 1213,-314 1213,-294.25 1074.75,-294.25"/>
<text xml:space="preserve" text-anchor="start" x="1124" y="-302.4" font-family="Arial" font-weight="bold" font-size="8.00">CMSClaim</text>
<polygon fill="#ffffff" stroke="none" points="1074.75,-274.5 1074.75,-294.25 1213,-294.25 1213,-274.5 1074.75,-274.5"/>
<text xml:space="preserve" text-anchor="start" x="1079.75" y="-281.65" font-family="Arial" font-size="8.00">CMSClaim &#45; CCLF0&#45;9, A,B (step#1)</text>
<text xml:space="preserve" text-anchor="start" x="1101.12" y="-261.9" font-family="Arial" font-size="8.00">Average Duration&#45;0 min</text>
<polygon fill="#ff0000" stroke="none" points="1074.75,-235 1074.75,-254.75 1213,-254.75 1213,-235 1074.75,-235"/>
<text xml:space="preserve" text-anchor="start" x="1113.12" y="-242.15" font-family="Arial" font-size="8.00">Did not run today</text>
<polygon fill="none" stroke="black" points="1073.75,-234 1073.75,-315 1214,-315 1214,-234 1073.75,-234"/>
</g>
<!-- CMSClaim.CMSClaim &#45; CCLF0&#45;9, A,B (step#2) -->
<g id="node9" class="node">
<title>CMSClaim.CMSClaim &#45; CCLF0&#45;9, A,B (step#2)</title>
<polygon fill="#cee2ff" stroke="none" points="1074.75,-177.25 1074.75,-197 1213,-197 1213,-177.25 1074.75,-177.25"/>
<text xml:space="preserve" text-anchor="start" x="1124" y="-185.4" font-family="Arial" font-weight="bold" font-size="8.00">CMSClaim</text>
<polygon fill="#ffffff" stroke="none" points="1074.75,-157.5 1074.75,-177.25 1213,-177.25 1213,-157.5 1074.75,-157.5"/>
<text xml:space="preserve" text-anchor="start" x="1079.75" y="-164.65" font-family="Arial" font-size="8.00">CMSClaim &#45; CCLF0&#45;9, A,B (step#2)</text>
<text xml:space="preserve" text-anchor="start" x="1101.12" y="-144.9" font-family="Arial" font-size="8.00">Average Duration&#45;0 min</text>
<polygon fill="#ff0000" stroke="none" points="1074.75,-118 1074.75,-137.75 1213,-137.75 1213,-118 1074.75,-118"/>
<text xml:space="preserve" text-anchor="start" x="1113.12" y="-125.15" font-family="Arial" font-size="8.00">Did not run today</text>
<polygon fill="none" stroke="black" points="1073.75,-117 1073.75,-198 1214,-198 1214,-117 1073.75,-117"/>
</g>
<!-- CMSClaim.CMSClaim &#45; CCLF0&#45;9, A,B (step#1)&#45;&gt;CMSClaim.CMSClaim &#45; CCLF0&#45;9, A,B (step#2) -->
<g id="edge6" class="edge">
<title>CMSClaim.CMSClaim &#45; CCLF0&#45;9, A,B (step#1)&#45;&gt;CMSClaim.CMSClaim &#45; CCLF0&#45;9, A,B (step#2)</title>
<g id="a_edge6"><a xlink:href="https://rhnv-webprod.rhnv.hosted/IDEA-Web/applications/4/entry/26" target="_blank">
<path fill="none" stroke="black" d="M1143.88,-234.25C1143.88,-226.19 1143.88,-217.61 1143.88,-209.22"/>
<polygon fill="black" stroke="black" points="1147.38,-209.48 1143.88,-199.48 1140.38,-209.48 1147.38,-209.48"/>
</a>
</g>
</g>
<!-- CMSClaim.CMSClaim &#45; BNEX (Step #1) -->
<g id="node10" class="node">
<title>CMSClaim.CMSClaim &#45; BNEX (Step #1)</title>
<polygon fill="#cee2ff" stroke="none" points="941.12,-294.25 941.12,-314 1054.62,-314 1054.62,-294.25 941.12,-294.25"/>
<text xml:space="preserve" text-anchor="start" x="978" y="-302.4" font-family="Arial" font-weight="bold" font-size="8.00">CMSClaim</text>
<polygon fill="#ffb255" fill-opacity="0.929412" stroke="none" points="941.12,-274.5 941.12,-294.25 1054.62,-294.25 1054.62,-274.5 941.12,-274.5"/>
<text xml:space="preserve" text-anchor="start" x="946.12" y="-281.65" font-family="Arial" font-size="8.00">CMSClaim &#45; BNEX (Step #1)</text>
<text xml:space="preserve" text-anchor="start" x="955.12" y="-261.9" font-family="Arial" font-size="8.00">Average Duration&#45;0 min</text>
<polygon fill="#ff0000" stroke="none" points="941.12,-235 941.12,-254.75 1054.62,-254.75 1054.62,-235 941.12,-235"/>
<text xml:space="preserve" text-anchor="start" x="967.12" y="-242.15" font-family="Arial" font-size="8.00">Did not run today</text>
<polygon fill="none" stroke="black" points="940.12,-234 940.12,-315 1055.62,-315 1055.62,-234 940.12,-234"/>
</g>
<!-- CMSClaim.CMSClaim &#45; BNEX (Step #1)&#45;&gt;CMSClaim.CMSClaim &#45; BNEX (Step #2) -->
<g id="edge9" class="edge">
<title>CMSClaim.CMSClaim &#45; BNEX (Step #1)&#45;&gt;CMSClaim.CMSClaim &#45; BNEX (Step #2)</title>
<g id="a_edge9"><a xlink:href="https://rhnv-webprod.rhnv.hosted/IDEA-Web/applications/4/entry/29" target="_blank">
<path fill="none" stroke="black" d="M997.88,-234.25C997.88,-226.19 997.88,-217.61 997.88,-209.22"/>
<polygon fill="black" stroke="black" points="1001.38,-209.48 997.88,-199.48 994.38,-209.48 1001.38,-209.48"/>
</a>
</g>
</g>
<!-- COPD.Refresh COPD -->
<g id="node11" class="node">
<title>COPD.Refresh COPD</title>
<polygon fill="#a487b7" stroke="none" points="1233.5,-294.25 1233.5,-314 1394.25,-314 1394.25,-294.25 1233.5,-294.25"/>
<text xml:space="preserve" text-anchor="start" x="1302.25" y="-302.4" font-family="Arial" font-weight="bold" font-size="8.00">COPD</text>
<polygon fill="#ffffff" stroke="none" points="1233.5,-274.5 1233.5,-294.25 1394.25,-294.25 1394.25,-274.5 1233.5,-274.5"/>
<text xml:space="preserve" text-anchor="start" x="1286.88" y="-281.65" font-family="Arial" font-size="8.00">Refresh COPD</text>
<text xml:space="preserve" text-anchor="start" x="1267" y="-261.9" font-family="Arial" font-size="8.00">Average Duration&#45;110 min</text>
<polygon fill="#69b660" stroke="none" points="1233.5,-235 1233.5,-254.75 1394.25,-254.75 1394.25,-235 1233.5,-235"/>
<text xml:space="preserve" text-anchor="start" x="1238.5" y="-242.15" font-family="Arial" font-size="8.00">Finished at 2026&#45;02&#45;13 14:41:33.8053810</text>
<polygon fill="none" stroke="black" points="1232.5,-234 1232.5,-315 1395.25,-315 1395.25,-234 1232.5,-234"/>
</g>
<!-- RemoteHealth.Refresh RemoteHealth -->
<g id="node19" class="node">
<title>RemoteHealth.Refresh RemoteHealth</title>
<polygon fill="#cfcfcf" fill-opacity="0.929412" stroke="none" points="1266.12,-177.25 1266.12,-197 1361.62,-197 1361.62,-177.25 1266.12,-177.25"/>
<text xml:space="preserve" text-anchor="start" x="1286.12" y="-185.4" font-family="Arial" font-weight="bold" font-size="8.00">RemoteHealth</text>
<polygon fill="#ffb255" fill-opacity="0.929412" stroke="none" points="1266.12,-157.5 1266.12,-177.25 1361.62,-177.25 1361.62,-157.5 1266.12,-157.5"/>
<text xml:space="preserve" text-anchor="start" x="1272.62" y="-164.65" font-family="Arial" font-size="8.00">Refresh RemoteHealth</text>
<text xml:space="preserve" text-anchor="start" x="1271.12" y="-144.9" font-family="Arial" font-size="8.00">Average Duration&#45;0 min</text>
<polygon fill="#ff0000" stroke="none" points="1266.12,-118 1266.12,-137.75 1361.62,-137.75 1361.62,-118 1266.12,-118"/>
<text xml:space="preserve" text-anchor="start" x="1283.12" y="-125.15" font-family="Arial" font-size="8.00">Did not run today</text>
<polygon fill="none" stroke="black" points="1265.12,-117 1265.12,-198 1362.62,-198 1362.62,-117 1265.12,-117"/>
</g>
<!-- COPD.Refresh COPD&#45;&gt;RemoteHealth.Refresh RemoteHealth -->
<g id="edge5" class="edge">
<title>COPD.Refresh COPD&#45;&gt;RemoteHealth.Refresh RemoteHealth</title>
<g id="a_edge5"><a xlink:href="https://rhnv-webprod.rhnv.hosted/IDEA-Web/applications/4/entry/49">
<path fill="none" stroke="#5e676f" stroke-dasharray="5,2" d="M1313.88,-234.25C1313.88,-226.19 1313.88,-217.61 1313.88,-209.22"/>
<polygon fill="#5e676f" stroke="#5e676f" points="1317.38,-209.48 1313.88,-199.48 1310.38,-209.48 1317.38,-209.48"/>
</a>
</g>
</g>
<!-- HospitalMasterCostingAndFinance.Refresh HospitalMaster CostingAndFinance -->
<g id="node12" class="node">
<title>HospitalMasterCostingAndFinance.Refresh HospitalMaster CostingAndFinance</title>
<polygon fill="#a487b7" stroke="none" points="754.88,-294.25 754.88,-314 920.88,-314 920.88,-294.25 754.88,-294.25"/>
<text xml:space="preserve" text-anchor="start" x="768.5" y="-302.4" font-family="Arial" font-weight="bold" font-size="8.00">HospitalMasterCostingAndFinance</text>
<polygon fill="#ffffff" stroke="none" points="754.88,-274.5 754.88,-294.25 920.88,-294.25 920.88,-274.5 754.88,-274.5"/>
<text xml:space="preserve" text-anchor="start" x="759.88" y="-281.65" font-family="Arial" font-size="8.00">Refresh HospitalMaster CostingAndFinance</text>
<text xml:space="preserve" text-anchor="start" x="795.12" y="-261.9" font-family="Arial" font-size="8.00">Average Duration&#45;9 min</text>
<polygon fill="#ff0000" stroke="none" points="754.88,-235 754.88,-254.75 920.88,-254.75 920.88,-235 754.88,-235"/>
<text xml:space="preserve" text-anchor="start" x="807.12" y="-242.15" font-family="Arial" font-size="8.00">Did not run today</text>
<polygon fill="none" stroke="black" points="753.88,-234 753.88,-315 921.88,-315 921.88,-234 753.88,-234"/>
</g>
<!-- HospitalMasterCostingAndFinance.Refresh HospitalMaster CostingAndFinance&#45;&gt;MedicalGroupCostingAndFinance.Refresh MedicalGroup CostingAndFinance -->
<g id="edge3" class="edge">
<title>HospitalMasterCostingAndFinance.Refresh HospitalMaster CostingAndFinance&#45;&gt;MedicalGroupCostingAndFinance.Refresh MedicalGroup CostingAndFinance</title>
<g id="a_edge3"><a xlink:href="https://rhnv-webprod.rhnv.hosted/IDEA-Web/applications/4/entry/31" target="_blank">
<path fill="none" stroke="black" d="M837.88,-234.25C837.88,-226.19 837.88,-217.61 837.88,-209.22"/>
<polygon fill="black" stroke="black" points="841.38,-209.48 837.88,-199.48 834.38,-209.48 841.38,-209.48"/>
</a>
</g>
</g>
<!-- CMSClaim.CMSClaim &#45; HALR (Step#1) -->
<g id="node14" class="node">
<title>CMSClaim.CMSClaim &#45; HALR (Step#1)</title>
<polygon fill="#cee2ff" stroke="none" points="1414.25,-294.25 1414.25,-314 1525.5,-314 1525.5,-294.25 1414.25,-294.25"/>
<text xml:space="preserve" text-anchor="start" x="1450" y="-302.4" font-family="Arial" font-weight="bold" font-size="8.00">CMSClaim</text>
<polygon fill="#ffffff" stroke="none" points="1414.25,-274.5 1414.25,-294.25 1525.5,-294.25 1525.5,-274.5 1414.25,-274.5"/>
<text xml:space="preserve" text-anchor="start" x="1419.25" y="-281.65" font-family="Arial" font-size="8.00">CMSClaim &#45; HALR (Step#1)</text>
<text xml:space="preserve" text-anchor="start" x="1427.12" y="-261.9" font-family="Arial" font-size="8.00">Average Duration&#45;0 min</text>
<polygon fill="#ff0000" stroke="none" points="1414.25,-235 1414.25,-254.75 1525.5,-254.75 1525.5,-235 1414.25,-235"/>
<text xml:space="preserve" text-anchor="start" x="1439.12" y="-242.15" font-family="Arial" font-size="8.00">Did not run today</text>
<polygon fill="none" stroke="black" points="1413.25,-234 1413.25,-315 1526.5,-315 1526.5,-234 1413.25,-234"/>
</g>
<!-- CMSClaim.CMSClaim &#45; HALR (Step#2) -->
<g id="node16" class="node">
<title>CMSClaim.CMSClaim &#45; HALR (Step#2)</title>
<polygon fill="#cee2ff" stroke="none" points="1414.25,-177.25 1414.25,-197 1525.5,-197 1525.5,-177.25 1414.25,-177.25"/>
<text xml:space="preserve" text-anchor="start" x="1450" y="-185.4" font-family="Arial" font-weight="bold" font-size="8.00">CMSClaim</text>
<polygon fill="#ffffff" stroke="none" points="1414.25,-157.5 1414.25,-177.25 1525.5,-177.25 1525.5,-157.5 1414.25,-157.5"/>
<text xml:space="preserve" text-anchor="start" x="1419.25" y="-164.65" font-family="Arial" font-size="8.00">CMSClaim &#45; HALR (Step#2)</text>
<text xml:space="preserve" text-anchor="start" x="1427.12" y="-144.9" font-family="Arial" font-size="8.00">Average Duration&#45;0 min</text>
<polygon fill="#ff0000" stroke="none" points="1414.25,-118 1414.25,-137.75 1525.5,-137.75 1525.5,-118 1414.25,-118"/>
<text xml:space="preserve" text-anchor="start" x="1439.12" y="-125.15" font-family="Arial" font-size="8.00">Did not run today</text>
<polygon fill="none" stroke="black" points="1413.25,-117 1413.25,-198 1526.5,-198 1526.5,-117 1413.25,-117"/>
</g>
<!-- CMSClaim.CMSClaim &#45; HALR (Step#1)&#45;&gt;CMSClaim.CMSClaim &#45; HALR (Step#2) -->
<g id="edge7" class="edge">
<title>CMSClaim.CMSClaim &#45; HALR (Step#1)&#45;&gt;CMSClaim.CMSClaim &#45; HALR (Step#2)</title>
<g id="a_edge7"><a xlink:href="https://rhnv-webprod.rhnv.hosted/IDEA-Web/applications/4/entry/27" target="_blank">
<path fill="none" stroke="black" d="M1469.88,-234.25C1469.88,-226.19 1469.88,-217.61 1469.88,-209.22"/>
<polygon fill="black" stroke="black" points="1473.38,-209.48 1469.88,-199.48 1466.38,-209.48 1473.38,-209.48"/>
</a>
</g>
</g>
<!-- CMSClaim.CMSClaim &#45; QALR/QASSGN (Step#1) -->
<g id="node15" class="node">
<title>CMSClaim.CMSClaim &#45; QALR/QASSGN (Step#1)</title>
<polygon fill="#cee2ff" stroke="none" points="410.25,-294.25 410.25,-314 557.5,-314 557.5,-294.25 410.25,-294.25"/>
<text xml:space="preserve" text-anchor="start" x="464" y="-302.4" font-family="Arial" font-weight="bold" font-size="8.00">CMSClaim</text>
<polygon fill="#ffffff" stroke="none" points="410.25,-274.5 410.25,-294.25 557.5,-294.25 557.5,-274.5 410.25,-274.5"/>
<text xml:space="preserve" text-anchor="start" x="415.25" y="-281.65" font-family="Arial" font-size="8.00">CMSClaim &#45; QALR/QASSGN (Step#1)</text>
<text xml:space="preserve" text-anchor="start" x="441.12" y="-261.9" font-family="Arial" font-size="8.00">Average Duration&#45;0 min</text>
<polygon fill="#ff0000" stroke="none" points="410.25,-235 410.25,-254.75 557.5,-254.75 557.5,-235 410.25,-235"/>
<text xml:space="preserve" text-anchor="start" x="453.12" y="-242.15" font-family="Arial" font-size="8.00">Did not run today</text>
<polygon fill="none" stroke="black" points="409.25,-234 409.25,-315 558.5,-315 558.5,-234 409.25,-234"/>
</g>
<!-- CMSClaim.CMSClaim &#45; QALR/QASSGN (Step#1)&#45;&gt;CMSClaim.CMSClaim &#45; QALR/QASSGN (Step#2) -->
<g id="edge8" class="edge">
<title>CMSClaim.CMSClaim &#45; QALR/QASSGN (Step#1)&#45;&gt;CMSClaim.CMSClaim &#45; QALR/QASSGN (Step#2)</title>
<g id="a_edge8"><a xlink:href="https://rhnv-webprod.rhnv.hosted/IDEA-Web/applications/4/entry/28" target="_blank">
<path fill="none" stroke="black" d="M483.88,-234.25C483.88,-226.19 483.88,-217.61 483.88,-209.22"/>
<polygon fill="black" stroke="black" points="487.38,-209.48 483.88,-199.48 480.38,-209.48 487.38,-209.48"/>
</a>
</g>
</g>
<!-- Ring Deploy Test Sequence 1.Ring Deploy Test Sequence 1 -->
<g id="node18" class="node">
<title>Ring Deploy Test Sequence 1.Ring Deploy Test Sequence 1</title>
<polygon fill="#a487b7" stroke="none" points="265.12,-294.25 265.12,-314 390.62,-314 390.62,-294.25 265.12,-294.25"/>
<text xml:space="preserve" text-anchor="start" x="270.12" y="-302.4" font-family="Arial" font-weight="bold" font-size="8.00">Ring Deploy Test Sequence 1</text>
<polygon fill="#ffb255" fill-opacity="0.929412" stroke="none" points="265.12,-274.5 265.12,-294.25 390.62,-294.25 390.62,-274.5 265.12,-274.5"/>
<text xml:space="preserve" text-anchor="start" x="275.38" y="-281.65" font-family="Arial" font-size="8.00">Ring Deploy Test Sequence 1</text>
<text xml:space="preserve" text-anchor="start" x="285.12" y="-261.9" font-family="Arial" font-size="8.00">Average Duration&#45;0 min</text>
<polygon fill="#ff0000" stroke="none" points="265.12,-235 265.12,-254.75 390.62,-254.75 390.62,-235 265.12,-235"/>
<text xml:space="preserve" text-anchor="start" x="297.12" y="-242.15" font-family="Arial" font-size="8.00">Did not run today</text>
<polygon fill="none" stroke="black" points="264.12,-234 264.12,-315 391.62,-315 391.62,-234 264.12,-234"/>
</g>
<!-- Ring Deploy Test Sequence 1.Ring Deploy Test Sequence 1&#45;&gt;Ring Deploy Test Sequence 2.Ring Deploy Test Sequence 2 -->
<g id="edge11" class="edge">
<title>Ring Deploy Test Sequence 1.Ring Deploy Test Sequence 1&#45;&gt;Ring Deploy Test Sequence 2.Ring Deploy Test Sequence 2</title>
<g id="a_edge11"><a xlink:href="https://rhnv-webprod.rhnv.hosted/IDEA-Web/applications/4/entry/60" target="_blank">
<path fill="none" stroke="black" d="M327.88,-234.25C327.88,-226.19 327.88,-217.61 327.88,-209.22"/>
<polygon fill="black" stroke="black" points="331.38,-209.48 327.88,-199.48 324.38,-209.48 331.38,-209.48"/>
</a>
</g>
</g>
<!-- Vendor Extract.Refresh VendorExtract PRC Remote Health -->
<g id="node21" class="node">
<title>Vendor Extract.Refresh VendorExtract PRC Remote Health</title>
<polygon fill="#a487b7" stroke="none" points="1230.12,-60.25 1230.12,-80 1397.62,-80 1397.62,-60.25 1230.12,-60.25"/>
<text xml:space="preserve" text-anchor="start" x="1284.62" y="-68.4" font-family="Arial" font-weight="bold" font-size="8.00">Vendor Extract</text>
<polygon fill="#ffb255" fill-opacity="0.929412" stroke="none" points="1230.12,-40.5 1230.12,-60.25 1397.62,-60.25 1397.62,-40.5 1230.12,-40.5"/>
<text xml:space="preserve" text-anchor="start" x="1235.12" y="-47.65" font-family="Arial" font-size="8.00">Refresh VendorExtract PRC Remote Health</text>
<text xml:space="preserve" text-anchor="start" x="1271.12" y="-27.9" font-family="Arial" font-size="8.00">Average Duration&#45;0 min</text>
<polygon fill="#ff0000" stroke="none" points="1230.12,-1 1230.12,-20.75 1397.62,-20.75 1397.62,-1 1230.12,-1"/>
<text xml:space="preserve" text-anchor="start" x="1283.12" y="-8.15" font-family="Arial" font-size="8.00">Did not run today</text>
<polygon fill="none" stroke="black" points="1229.12,0 1229.12,-81 1398.62,-81 1398.62,0 1229.12,0"/>
</g>
<!-- RemoteHealth.Refresh RemoteHealth&#45;&gt;Vendor Extract.Refresh VendorExtract PRC Remote Health -->
<g id="edge15" class="edge">
<title>RemoteHealth.Refresh RemoteHealth&#45;&gt;Vendor Extract.Refresh VendorExtract PRC Remote Health</title>
<g id="a_edge15"><a xlink:href="https://rhnv-webprod.rhnv.hosted/IDEA-Web/applications/4/entry/57">
<path fill="none" stroke="#5e676f" stroke-dasharray="5,2" d="M1313.88,-117.25C1313.88,-109.19 1313.88,-100.61 1313.88,-92.22"/>
<polygon fill="#5e676f" stroke="#5e676f" points="1317.38,-92.48 1313.88,-82.48 1310.38,-92.48 1317.38,-92.48"/>
</a>
</g>
</g>
<!-- SharedLocalTerminology.Refresh SharedLocalTerminology -->
<g id="node20" class="node">
<title>SharedLocalTerminology.Refresh SharedLocalTerminology</title>
<polygon fill="#a487b7" stroke="none" points="1531.62,-60.25 1531.62,-80 1660.12,-80 1660.12,-60.25 1531.62,-60.25"/>
<text xml:space="preserve" text-anchor="start" x="1546.75" y="-68.4" font-family="Arial" font-weight="bold" font-size="8.00">SharedLocalTerminology</text>
<polygon fill="#ffffff" stroke="none" points="1531.62,-40.5 1531.62,-60.25 1660.12,-60.25 1660.12,-40.5 1531.62,-40.5"/>
<text xml:space="preserve" text-anchor="start" x="1536.62" y="-47.65" font-family="Arial" font-size="8.00">Refresh SharedLocalTerminology</text>
<text xml:space="preserve" text-anchor="start" x="1553.12" y="-27.9" font-family="Arial" font-size="8.00">Average Duration&#45;0 min</text>
<polygon fill="#ff0000" stroke="none" points="1531.62,-1 1531.62,-20.75 1660.12,-20.75 1660.12,-1 1531.62,-1"/>
<text xml:space="preserve" text-anchor="start" x="1565.12" y="-8.15" font-family="Arial" font-size="8.00">Did not run today</text>
<polygon fill="none" stroke="black" points="1530.62,0 1530.62,-81 1661.12,-81 1661.12,0 1530.62,0"/>
</g>
<!-- SharedClinical.Refresh SharedClinical (Weekly Full) -->
<g id="node22" class="node">
<title>SharedClinical.Refresh SharedClinical (Weekly Full)</title>
<polygon fill="#a487b7" stroke="none" points="586.62,-294.25 586.62,-314 727.12,-314 727.12,-294.25 586.62,-294.25"/>
<text xml:space="preserve" text-anchor="start" x="628.38" y="-302.4" font-family="Arial" font-weight="bold" font-size="8.00">SharedClinical</text>
<polygon fill="#ffffff" stroke="none" points="586.62,-274.5 586.62,-294.25 727.12,-294.25 727.12,-274.5 586.62,-274.5"/>
<text xml:space="preserve" text-anchor="start" x="591.62" y="-281.65" font-family="Arial" font-size="8.00">Refresh SharedClinical (Weekly Full)</text>
<text xml:space="preserve" text-anchor="start" x="609.62" y="-261.9" font-family="Arial" font-size="8.00">Average Duration&#45;652 min</text>
<polygon fill="#ff0000" stroke="none" points="586.62,-235 586.62,-254.75 727.12,-254.75 727.12,-235 586.62,-235"/>
<text xml:space="preserve" text-anchor="start" x="626.12" y="-242.15" font-family="Arial" font-size="8.00">Did not run today</text>
<polygon fill="none" stroke="black" points="585.62,-234 585.62,-315 728.12,-315 728.12,-234 585.62,-234"/>
</g>
<!-- SharedClinical.Refresh SharedClinical (Weekly Full)&#45;&gt;SharedLocalClinical.Refresh SharedLocalClinical (Weekly Full) -->
<g id="edge14" class="edge">
<title>SharedClinical.Refresh SharedClinical (Weekly Full)&#45;&gt;SharedLocalClinical.Refresh SharedLocalClinical (Weekly Full)</title>
<g id="a_edge14"><a xlink:href="https://rhnv-webprod.rhnv.hosted/IDEA-Web/applications/4/entry/52" target="_blank">
<path fill="none" stroke="black" d="M656.88,-234.25C656.88,-226.19 656.88,-217.61 656.88,-209.22"/>
<polygon fill="black" stroke="black" points="660.38,-209.48 656.88,-199.48 653.38,-209.48 660.38,-209.48"/>
</a>
</g>
</g>
<!-- Ring Deploy Test Sequence 2.POST DOS UPDATE ETL TEST BATCH Sequence 2 -->
<g id="node23" class="node">
<title>Ring Deploy Test Sequence 2.POST DOS UPDATE ETL TEST BATCH Sequence 2</title>
<polygon fill="#a487b7" stroke="none" points="1666.38,-177.25 1666.38,-197 1865.38,-197 1865.38,-177.25 1666.38,-177.25"/>
<text xml:space="preserve" text-anchor="start" x="1708.12" y="-185.4" font-family="Arial" font-weight="bold" font-size="8.00">Ring Deploy Test Sequence 2</text>
<polygon fill="#ffffff" stroke="none" points="1666.38,-157.5 1666.38,-177.25 1865.38,-177.25 1865.38,-157.5 1666.38,-157.5"/>
<text xml:space="preserve" text-anchor="start" x="1671.38" y="-164.65" font-family="Arial" font-size="8.00">POST DOS UPDATE ETL TEST BATCH Sequence 2</text>
<text xml:space="preserve" text-anchor="start" x="1723.12" y="-144.9" font-family="Arial" font-size="8.00">Average Duration&#45;0 min</text>
<polygon fill="#ff0000" stroke="none" points="1666.38,-118 1666.38,-137.75 1865.38,-137.75 1865.38,-118 1666.38,-118"/>
<text xml:space="preserve" text-anchor="start" x="1735.12" y="-125.15" font-family="Arial" font-size="8.00">Did not run today</text>
<polygon fill="none" stroke="black" points="1665.38,-117 1665.38,-198 1866.38,-198 1866.38,-117 1665.38,-117"/>
</g>
<!-- Ring Deploy Test Sequence 1.POST DOS UPDATE ETL TEST BATCH  -->
<g id="node24" class="node">
<title>Ring Deploy Test Sequence 1.POST DOS UPDATE ETL TEST BATCH </title>
<polygon fill="#a487b7" stroke="none" points="1687.75,-294.25 1687.75,-314 1844,-314 1844,-294.25 1687.75,-294.25"/>
<text xml:space="preserve" text-anchor="start" x="1708.12" y="-302.4" font-family="Arial" font-weight="bold" font-size="8.00">Ring Deploy Test Sequence 1</text>
<polygon fill="#ffffff" stroke="none" points="1687.75,-274.5 1687.75,-294.25 1844,-294.25 1844,-274.5 1687.75,-274.5"/>
<text xml:space="preserve" text-anchor="start" x="1692.75" y="-281.65" font-family="Arial" font-size="8.00">POST DOS UPDATE ETL TEST BATCH </text>
<text xml:space="preserve" text-anchor="start" x="1723.12" y="-261.9" font-family="Arial" font-size="8.00">Average Duration&#45;0 min</text>
<polygon fill="#ff0000" stroke="none" points="1687.75,-235 1687.75,-254.75 1844,-254.75 1844,-235 1687.75,-235"/>
<text xml:space="preserve" text-anchor="start" x="1735.12" y="-242.15" font-family="Arial" font-size="8.00">Did not run today</text>
<polygon fill="none" stroke="black" points="1686.75,-234 1686.75,-315 1845,-315 1845,-234 1686.75,-234"/>
</g>
<!-- Ring Deploy Test Sequence 1.POST DOS UPDATE ETL TEST BATCH &#45;&gt;Ring Deploy Test Sequence 2.POST DOS UPDATE ETL TEST BATCH Sequence 2 -->
<g id="edge12" class="edge">
<title>Ring Deploy Test Sequence 1.POST DOS UPDATE ETL TEST BATCH &#45;&gt;Ring Deploy Test Sequence 2.POST DOS UPDATE ETL TEST BATCH Sequence 2</title>
<g id="a_edge12"><a xlink:href="https://rhnv-webprod.rhnv.hosted/IDEA-Web/applications/4/entry/63" target="_blank">
<path fill="none" stroke="black" d="M1765.88,-234.25C1765.88,-226.19 1765.88,-217.61 1765.88,-209.22"/>
<polygon fill="black" stroke="black" points="1769.38,-209.48 1765.88,-199.48 1762.38,-209.48 1769.38,-209.48"/>
</a>
</g>
</g>
<!-- SharedTerminology.Shared Terminology -->
<g id="node26" class="node">
<title>SharedTerminology.Shared Terminology</title>
<polygon fill="#a487b7" stroke="none" points="1545.88,-177.25 1545.88,-197 1645.88,-197 1645.88,-177.25 1545.88,-177.25"/>
<text xml:space="preserve" text-anchor="start" x="1557.62" y="-185.4" font-family="Arial" font-weight="bold" font-size="8.00">SharedTerminology</text>
<polygon fill="#ffffff" stroke="none" points="1545.88,-157.5 1545.88,-177.25 1645.88,-177.25 1645.88,-157.5 1545.88,-157.5"/>
<text xml:space="preserve" text-anchor="start" x="1560.25" y="-164.65" font-family="Arial" font-size="8.00">Shared Terminology</text>
<text xml:space="preserve" text-anchor="start" x="1550.88" y="-144.9" font-family="Arial" font-size="8.00">Average Duration&#45;53 min</text>
<polygon fill="#ff0000" stroke="none" points="1545.88,-118 1545.88,-137.75 1645.88,-137.75 1645.88,-118 1545.88,-118"/>
<text xml:space="preserve" text-anchor="start" x="1565.12" y="-125.15" font-family="Arial" font-size="8.00">Did not run today</text>
<polygon fill="none" stroke="black" points="1544.88,-117 1544.88,-198 1646.88,-198 1646.88,-117 1544.88,-117"/>
</g>
<!-- SharedTerminology.Shared Terminology&#45;&gt;SharedLocalTerminology.Refresh SharedLocalTerminology -->
<g id="edge2" class="edge">
<title>SharedTerminology.Shared Terminology&#45;&gt;SharedLocalTerminology.Refresh SharedLocalTerminology</title>
<g id="a_edge2"><a xlink:href="https://rhnv-webprod.rhnv.hosted/IDEA-Web/applications/4/entry/11" target="_blank">
<path fill="none" stroke="black" d="M1595.88,-117.25C1595.88,-109.19 1595.88,-100.61 1595.88,-92.22"/>
<polygon fill="black" stroke="black" points="1599.38,-92.48 1595.88,-82.48 1592.38,-92.48 1599.38,-92.48"/>
</a>
</g>
</g>
<!-- Terminology.Terminology Weekly -->
<g id="node27" class="node">
<title>Terminology.Terminology Weekly</title>
<polygon fill="#cee2ff" stroke="none" points="1545.88,-294.25 1545.88,-314 1645.88,-314 1645.88,-294.25 1545.88,-294.25"/>
<text xml:space="preserve" text-anchor="start" x="1571.5" y="-302.4" font-family="Arial" font-weight="bold" font-size="8.00">Terminology</text>
<polygon fill="#ffffff" stroke="none" points="1545.88,-274.5 1545.88,-294.25 1645.88,-294.25 1645.88,-274.5 1545.88,-274.5"/>
<text xml:space="preserve" text-anchor="start" x="1560.62" y="-281.65" font-family="Arial" font-size="8.00">Terminology Weekly</text>
<text xml:space="preserve" text-anchor="start" x="1550.88" y="-261.9" font-family="Arial" font-size="8.00">Average Duration&#45;33 min</text>
<polygon fill="#ff0000" stroke="none" points="1545.88,-235 1545.88,-254.75 1645.88,-254.75 1645.88,-235 1545.88,-235"/>
<text xml:space="preserve" text-anchor="start" x="1565.12" y="-242.15" font-family="Arial" font-size="8.00">Did not run today</text>
<polygon fill="none" stroke="black" points="1544.88,-234 1544.88,-315 1646.88,-315 1646.88,-234 1544.88,-234"/>
</g>
<!-- Terminology.Terminology Weekly&#45;&gt;SharedTerminology.Shared Terminology -->
<g id="edge1" class="edge">
<title>Terminology.Terminology Weekly&#45;&gt;SharedTerminology.Shared Terminology</title>
<g id="a_edge1"><a xlink:href="https://rhnv-webprod.rhnv.hosted/IDEA-Web/applications/4/entry/6" target="_blank">
<path fill="none" stroke="black" d="M1595.88,-234.25C1595.88,-226.19 1595.88,-217.61 1595.88,-209.22"/>
<polygon fill="black" stroke="black" points="1599.38,-209.48 1595.88,-199.48 1592.38,-209.48 1599.38,-209.48"/>
</a>
</g>
</g>
</g>
</svg>

